<?xml version="1.0" encoding="utf-8"?>
<svg viewBox="0 0 500 500" xmlns="http://www.w3.org/2000/svg" xmlns:bx="https://boxy-svg.com">
  <circle style="fill: rgb(95, 134, 80);" cx="250.148" cy="249.764" r="247.322"/>
  <path d="M 47.331 123.693 C 47.331 137.464 59.859 151.863 59.859 165.605 C 58.748 168.955 66.372 172.339 66.372 176.696" style="fill: none; stroke-linecap: round; stroke: rgb(90, 53, 53); stroke-width: 2px;"/>
  <path d="M 60.26 110.394 C 60.26 128.048 71.482 143.399 72.362 160.563 C 72.3 162.138 71.61 179.998 73.173 179.998" style="fill: none; stroke-linecap: round; stroke: rgb(90, 53, 53); stroke-width: 2px;"/>
  <path d="M 94.015 82.776 C 94.015 102.635 102.721 122.932 102.721 142.535 C 102.566 142.393 105.869 159.804 107.236 159.804" style="fill: none; stroke-linecap: round; stroke: rgb(90, 53, 53); stroke-width: 2px;"/>
  <path d="M 112.649 62.892 C 115.406 65.649 115.911 76.086 117.504 79.902 C 126.199 100.745 130.896 123.085 136.867 144.748 C 134.595 149.673 144.903 154.875 144.903 160.839" style="fill: none; stroke-linecap: round; stroke: rgb(90, 53, 53); stroke-width: 2px;"/>
  <path d="M 142 46.533 C 142 61.983 149.648 78.227 150.935 93.848 C 152.097 107.95 151.685 122.208 151.685 136.397 C 152.278 141.75 158.705 147.503 158.705 153.511" style="fill: none; stroke-linecap: round; stroke: rgb(90, 53, 53); stroke-width: 2px;"/>
  <path d="M 163.5 40.357 C 163.5 50.218 167.17 60.247 168.061 69.21 C 168.061 71.468 170.667 77.544 171.47 79.661 C 173.299 84.49 171.1 91.94 172.147 97.152 C 174.699 109.855 177.657 122.198 180.198 134.785 C 180.137 138.073 179.818 143.925 182.822 146.928" style="fill: none; stroke-linecap: round; stroke: rgb(90, 53, 53); stroke-width: 2px;"/>
  <path d="M 293.669 136.628 C 293.669 119.408 293.669 102.189 293.669 84.969 C 293.669 75.096 295.047 64.094 292.77 54.413 C 291.302 48.175 290.408 41.945 289.544 35.641 C 289.431 34.814 288.85 30.786 288.615 30.786" style="fill: none; stroke-linecap: round; stroke: rgb(90, 53, 53); stroke-width: 2px;"/>
  <path d="M 308.055 131.961 C 308.055 98.193 316.892 66.028 316.892 32.262" style="fill: none; stroke-linecap: round; stroke: rgb(90, 53, 53); stroke-width: 2px;"/>
  <path d="M 187.043 140.194 C 187.043 124.699 182.591 109.407 180.279 94.052 C 177.555 75.953 178.463 57.445 178.463 39.492" style="stroke-linecap: round; stroke: rgb(90, 53, 53); fill: none; stroke-width: 2px;"/>
  <path d="M 351.669 145.117 C 348.037 119.924 343.525 94.868 340.439 69.585 C 339.282 60.101 337.748 50.568 337.096 41.04 C 336.913 38.375 336.469 35.771 336.255 33.085 C 336.21 32.511 336.038 28.154 336.038 29.029" style="fill: none; stroke-linecap: round; stroke: rgb(90, 53, 53); stroke-width: 2px;"/>
  <path d="M 362.812 140.421 C 362.812 109.036 365.653 77.723 365.653 46.402" style="fill: none; stroke-linecap: round; stroke: rgb(90, 53, 53); stroke-width: 2px;"/>
  <path d="M 367.477 146.921 C 367.477 139.939 371.073 133.715 372.518 126.959 C 375.255 114.166 374.882 101.22 379.344 88.589 C 382.1 80.787 386.843 70.523 386.843 62.118" style="fill: none; stroke-linecap: round; stroke: rgb(90, 53, 53); stroke-width: 2px;"/>
  <path d="M 397.774 155.792 C 397.774 136.07 396.668 116.14 399.353 96.597 C 400.027 91.693 399.525 79.138 403.449 75.154" style="fill: none; stroke-linecap: round; stroke: rgb(90, 53, 53); stroke-width: 2px;"/>
  <path d="M 410.758 151.958 C 410.758 129.787 418.182 107.303 418.182 85.499" style="fill: none; stroke-linecap: round; stroke: rgb(90, 53, 53); stroke-width: 2px;"/>
  <path d="M 422.776 162.416 C 426.096 148.665 434.207 136.624 440.431 124.132 C 442.616 119.749 444.469 112.946 448.006 109.355" style="fill: none; stroke-linecap: round; stroke: rgb(90, 53, 53); stroke-width: 2px;"/>
  <path d="M 61.776 184.52 C 50.26 177.599 44.576 166.383 37.489 155.233 C 35.664 152.361 31.691 148.282 31.691 144.674" style="fill: none; stroke-linecap: round; stroke: rgb(90, 53, 53); stroke-width: 2px;"/>
  <path d="M 113.389 162.547 C 113.389 138.735 115.573 112.663 112.307 89.047 C 111.715 84.767 107.921 79.84 107.921 76.275" style="fill: none; stroke-linecap: round; stroke: rgb(90, 53, 53); stroke-width: 2px;"/>
  <path d="M 149.45 153.577 C 147.487 140.565 141.95 128.447 138.59 115.983 C 135.378 104.069 134.608 90.259 133.294 77.975 C 132.603 71.507 129.764 66.064 128.989 59.918 C 128.665 57.344 128.847 51.748 127.21 50.11" style="fill: none; stroke-linecap: round; stroke: rgb(90, 53, 53); stroke-width: 2px;"/>
  <path d="M 199.251 143.188 C 199.251 135.872 199.589 128.406 199.251 121.087 C 198.71 109.396 191.769 97.385 190.7 85.311 C 189.187 68.223 192.139 51.645 192.139 35.212" style="fill: none; stroke: rgb(90, 53, 53); stroke-linecap: round; stroke-width: 2px;"/>
  <path d="M 97.931 165.578 C 82.555 149.521 74.836 112.96 74.836 92.288" style="fill: none; stroke: rgb(90, 53, 53); stroke-linecap: round; stroke-width: 2px;"/>
  <path fill="rgb(255,0,0)" stroke="rgb(255,0,0)" stroke-width="0" opacity="0.9607843137254902" d="M 38.103 137.502 C 39.497 137.382 41.959 137.836 43.012 139.026 C 44.083 140.237 44.559 143.075 44.415 144.995 C 44.816 144.385 45.364 143.806 45.794 143.463 C 46.329 143.035 46.774 142.735 47.486 142.786 C 48.49 142.857 50.64 143.781 51.378 144.648 C 51.999 145.376 52.212 146.462 52.056 147.356 C 51.885 148.325 51.035 149.642 50.194 150.232 C 49.383 150.801 48.108 151.129 47.147 150.909 C 46.127 150.677 44.789 149.589 44.27 148.709 C 44.024 148.29 43.879 147.791 43.832 147.287 C 43.336 148.448 42.583 149.514 41.827 150.026 C 40.82 150.708 39.355 150.662 38.103 150.365 C 36.706 150.031 34.678 148.988 33.873 147.826 C 33.123 146.745 33.034 145.149 33.196 143.764 C 33.37 142.276 34.145 140.25 35.057 139.195 C 35.852 138.276 36.911 137.606 38.103 137.502 Z M 45.005 150.959 C 46.02 151.111 47.868 152.211 48.559 153.159 C 49.175 154.004 49.424 155.173 49.237 156.205 C 49.025 157.367 47.991 159.136 47.037 159.759 C 46.193 160.31 44.882 160.318 43.99 160.098 C 43.145 159.889 42.278 159.412 41.79 158.575 C 41.174 157.52 40.796 155.041 41.113 153.837 C 41.371 152.853 42.279 152.116 42.975 151.636 C 43.592 151.211 44.229 150.844 45.005 150.959 Z M 31.051 152.512 C 32.234 152.604 35.623 154.007 36.636 155.389 C 37.544 156.628 37.631 158.923 37.313 160.127 C 37.055 161.111 36.308 161.893 35.451 162.327 C 34.501 162.809 32.877 162.967 31.729 162.665 C 30.561 162.359 29.22 161.514 28.513 160.465 C 27.763 159.354 27.241 157.313 27.497 156.065 C 27.732 154.923 29.019 153.773 29.697 153.188 C 30.177 152.776 30.382 152.46 31.051 152.512 Z M 38.083 166.429 C 39.116 166.482 41.859 167.507 42.652 168.628 C 43.378 169.656 43.299 171.555 42.991 172.69 C 42.712 173.714 42.009 174.741 41.129 175.229 C 40.186 175.752 38.374 175.845 37.406 175.568 C 36.594 175.335 35.969 174.813 35.544 174.044 C 35.017 173.091 34.63 171.169 34.867 169.982 C 35.088 168.879 36.105 167.689 36.729 167.105 C 37.179 166.685 37.445 166.396 38.083 166.429 Z M 45.686 176.071 C 46.26 175.953 47.552 175.749 48.394 176.071 C 49.313 176.421 50.469 177.447 50.933 178.271 C 51.337 178.991 51.447 179.801 51.271 180.641 C 51.062 181.641 50.298 183.151 49.409 183.856 C 48.538 184.546 47.105 185.045 46.025 184.871 C 44.901 184.691 43.392 183.64 42.81 182.671 C 42.257 181.754 42.135 180.31 42.471 179.287 C 42.823 178.212 44.436 176.88 45.009 176.409 C 45.309 176.164 45.342 176.142 45.686 176.071 Z M 41.711 125.14 C 42.605 125.232 45.162 126.159 45.941 127.002 C 46.548 127.658 46.738 128.527 46.619 129.371 C 46.478 130.367 45.584 131.948 44.757 132.587 C 44.019 133.157 42.968 133.443 42.049 133.263 C 40.999 133.059 39.402 131.961 38.834 131.064 C 38.341 130.285 38.246 129.236 38.495 128.356 C 38.774 127.37 40.074 125.958 40.695 125.478 C 41.076 125.185 41.212 125.089 41.711 125.14 Z M 52.849 115.719 C 53.791 115.76 55.623 116.163 56.403 117.242 C 57.382 118.597 57.737 122.318 57.418 124.011 C 57.176 125.295 56.326 126.303 55.557 126.888 C 54.881 127.401 54.052 127.706 53.187 127.565 C 52.118 127.391 50.449 126.51 49.633 125.365 C 48.717 124.079 47.956 121.484 48.279 119.95 C 48.577 118.533 50.282 117.073 51.156 116.396 C 51.761 115.927 52.151 115.689 52.849 115.719 Z M 53.654 128.841 C 54.688 128.894 57.44 129.953 58.223 131.041 C 58.916 132.004 58.799 133.687 58.561 134.764 C 58.345 135.746 57.839 136.761 57.039 137.302 C 56.155 137.899 54.375 138.263 53.315 137.98 C 52.305 137.709 51.257 136.707 50.776 135.78 C 50.294 134.847 50.186 133.438 50.438 132.395 C 50.691 131.349 51.677 130.101 52.3 129.518 C 52.749 129.097 53.016 128.808 53.654 128.841 Z M 60.049 141.696 C 61.078 141.799 64.356 142.808 65.295 143.896 C 66.064 144.787 66.16 146.319 65.972 147.281 C 65.802 148.15 65.246 148.997 64.449 149.481 C 63.503 150.058 61.494 150.288 60.387 150.158 C 59.493 150.052 58.754 149.819 58.187 149.143 C 57.465 148.281 56.636 146.129 56.833 144.912 C 57.016 143.789 58.413 142.514 59.033 142.035 C 59.415 141.741 59.521 141.644 60.049 141.696 Z M 55.04 103.569 C 56.041 103.598 58.173 104.157 58.933 105.093 C 59.689 106.023 59.847 107.967 59.61 109.154 C 59.389 110.258 58.649 111.436 57.748 112.031 C 56.811 112.651 55.043 112.967 54.025 112.708 C 53.112 112.477 52.306 111.674 51.825 110.847 C 51.308 109.957 50.922 108.538 51.148 107.461 C 51.385 106.332 52.597 104.878 53.348 104.247 C 53.902 103.78 54.323 103.548 55.04 103.569 Z M 66.284 102.537 C 67.408 102.629 69.446 103.529 70.177 104.736 C 70.985 106.073 70.932 109.114 70.515 110.491 C 70.199 111.535 69.484 112.261 68.653 112.691 C 67.765 113.15 66.219 113.317 65.269 113.029 C 64.38 112.76 63.522 112.148 63.069 111.168 C 62.47 109.875 62.431 106.733 62.73 105.414 C 62.934 104.516 63.352 104.026 63.915 103.552 C 64.514 103.048 65.382 102.462 66.284 102.537 Z M 66.415 114.402 C 67.353 114.478 68.925 115.105 69.631 115.925 C 70.334 116.742 70.777 118.22 70.646 119.309 C 70.513 120.422 69.647 121.883 68.784 122.525 C 67.979 123.124 66.699 123.421 65.738 123.203 C 64.718 122.969 63.394 121.95 62.861 121.002 C 62.342 120.078 62.254 118.616 62.523 117.617 C 62.784 116.65 63.672 115.611 64.385 115.079 C 64.994 114.623 65.65 114.339 66.415 114.402 Z M 69.686 124.549 C 70.695 124.661 72.89 125.706 73.578 126.749 C 74.219 127.721 74.135 129.494 73.917 130.473 C 73.739 131.265 73.372 131.868 72.732 132.335 C 71.96 132.897 70.362 133.469 69.348 133.349 C 68.403 133.239 67.355 132.673 66.809 131.827 C 66.167 130.83 65.834 128.57 66.132 127.427 C 66.383 126.465 67.342 125.708 67.994 125.226 C 68.537 124.826 68.981 124.471 69.686 124.549 Z M 74.009 136.465 C 74.713 136.272 76.043 136.09 77.055 136.465 C 78.245 136.905 79.901 138.09 80.608 139.341 C 81.329 140.617 81.52 142.805 81.285 144.08 C 81.091 145.133 80.63 146.071 79.762 146.618 C 78.711 147.283 76.434 147.584 75.023 147.296 C 73.687 147.023 72.174 146.145 71.47 145.096 C 70.77 144.053 70.559 142.339 70.793 141.034 C 71.035 139.684 72.363 137.863 72.993 137.141 C 73.368 136.712 73.52 136.597 74.009 136.465 Z M 79.37 148.775 C 80.236 148.654 82.258 148.383 83.432 148.775 C 84.554 149.15 85.756 149.919 86.309 150.975 C 86.926 152.153 87.06 153.999 86.648 155.714 C 86.142 157.822 84.221 161.599 82.756 162.652 C 81.713 163.403 80.435 163.311 79.37 162.991 C 78.225 162.646 76.817 161.658 76.156 160.452 C 75.414 159.1 75.167 156.854 75.478 155.037 C 75.814 153.078 77.571 149.915 78.356 149.113 C 78.735 148.727 78.864 148.846 79.37 148.775 Z M 63.455 152.205 C 64.59 152.308 67.835 153.828 68.702 155.082 C 69.42 156.121 69.207 157.764 69.04 158.805 C 68.899 159.68 68.701 160.439 68.024 161.005 C 67.163 161.727 64.98 162.474 63.793 162.359 C 62.785 162.261 61.845 161.719 61.255 160.836 C 60.516 159.731 59.999 157.147 60.239 155.759 C 60.444 154.581 61.478 153.465 62.101 152.881 C 62.55 152.461 62.799 152.145 63.455 152.205 Z M 50.912 160.427 C 52.045 160.555 54.324 161.473 55.143 162.628 C 55.962 163.784 56.077 166.151 55.819 167.366 C 55.615 168.329 55.092 169.081 54.296 169.566 C 53.35 170.142 51.317 170.521 50.234 170.243 C 49.296 170.001 48.563 169.277 48.034 168.382 C 47.402 167.309 46.813 165.239 47.019 163.982 C 47.203 162.855 48.153 161.688 48.88 161.104 C 49.484 160.621 50.089 160.335 50.912 160.427 Z M 66.516 91.821 C 67.328 91.825 70.205 92.271 71.084 93.344 C 71.987 94.443 72.074 97.093 71.762 98.421 C 71.505 99.514 70.754 100.476 69.9 100.96 C 69.02 101.458 67.432 101.502 66.516 101.298 C 65.745 101.126 65.117 100.828 64.654 100.114 C 64.02 99.134 63.383 96.74 63.639 95.375 C 63.873 94.123 65.302 92.669 65.839 92.159 C 66.118 91.895 66.128 91.819 66.516 91.821 Z M 73.766 79.482 C 74.899 79.312 76.748 79.388 77.828 79.821 C 78.769 80.199 79.544 80.805 80.028 81.683 C 80.586 82.694 80.991 84.567 80.705 85.745 C 80.434 86.863 79.607 87.845 78.504 88.621 C 77.147 89.576 74.218 90.75 72.751 90.652 C 71.652 90.579 70.769 90.069 70.212 89.129 C 69.468 87.872 69.174 84.543 69.535 83.037 C 69.812 81.882 70.654 81.095 71.397 80.498 C 72.082 79.947 72.823 79.625 73.766 79.482 Z M 80.591 89.193 C 81.483 89.248 83.951 89.76 84.822 90.717 C 85.67 91.647 86.035 93.508 85.837 94.778 C 85.64 96.047 84.627 97.7 83.637 98.332 C 82.727 98.914 81.242 98.984 80.253 98.67 C 79.269 98.359 78.251 97.394 77.714 96.47 C 77.172 95.537 76.789 94.191 77.038 93.086 C 77.311 91.873 78.89 90.088 79.576 89.532 C 79.966 89.215 80.089 89.163 80.591 89.193 Z M 81.435 105.377 C 82.409 105.303 84.734 105.499 85.666 106.392 C 86.632 107.318 87.19 109.465 87.02 110.962 C 86.843 112.514 85.51 114.785 84.481 115.531 C 83.687 116.106 82.654 116.119 81.773 115.87 C 80.787 115.59 79.545 114.667 78.896 113.67 C 78.209 112.612 77.683 110.877 77.881 109.608 C 78.078 108.339 79.381 106.731 80.081 106.053 C 80.547 105.602 80.796 105.425 81.435 105.377 Z M 88.13 95.051 C 89.117 95.162 92.18 96.043 93.038 97.251 C 93.855 98.4 93.803 100.689 93.377 101.99 C 92.985 103.183 91.857 104.338 90.838 104.866 C 89.867 105.37 88.403 105.493 87.453 105.205 C 86.564 104.935 85.734 104.171 85.254 103.344 C 84.736 102.454 84.37 101.161 84.576 99.958 C 84.82 98.539 86.405 96.056 87.115 95.389 C 87.492 95.036 87.613 94.992 88.13 95.051 Z M 86.756 76.733 C 87.651 76.825 90.096 77.392 90.987 78.594 C 92.009 79.972 92.332 83.46 92.003 85.025 C 91.756 86.195 90.893 87.03 90.141 87.564 C 89.46 88.047 88.594 88.336 87.772 88.24 C 86.853 88.134 85.588 87.719 84.894 86.718 C 83.958 85.364 83.202 81.631 83.54 79.948 C 83.803 78.647 85.121 77.549 85.741 77.071 C 86.122 76.777 86.258 76.682 86.756 76.733 Z M 91.238 111.074 C 92.09 111.102 95.231 111.827 96.146 112.935 C 97.004 113.974 97.076 115.955 96.824 117.336 C 96.57 118.719 95.629 120.481 94.624 121.228 C 93.717 121.902 92.24 122.122 91.238 121.905 C 90.274 121.696 89.244 120.969 88.7 120.044 C 88.075 118.979 87.741 117.054 88.023 115.643 C 88.318 114.173 89.966 112.028 90.562 111.413 C 90.843 111.122 90.846 111.061 91.238 111.074 Z M 84.105 120.86 C 84.917 120.83 87.682 121.001 88.675 122.046 C 89.761 123.186 90.292 126.235 90.029 127.799 C 89.806 129.124 88.763 130.44 87.829 131.015 C 86.979 131.537 85.674 131.574 84.783 131.353 C 83.938 131.145 83.19 130.631 82.583 129.83 C 81.821 128.825 80.763 126.856 80.89 125.43 C 81.019 123.978 82.833 121.813 83.429 121.199 C 83.71 120.909 83.715 120.875 84.105 120.86 Z M 87.99 134.009 C 88.932 134.181 91.14 135.241 91.882 136.209 C 92.525 137.049 92.649 138.348 92.559 139.255 C 92.478 140.077 92.225 140.928 91.544 141.455 C 90.682 142.122 88.39 142.584 87.313 142.471 C 86.505 142.387 85.914 142.12 85.452 141.455 C 84.816 140.545 84.148 138.113 84.436 136.886 C 84.689 135.813 85.957 134.792 86.636 134.348 C 87.115 134.035 87.399 133.901 87.99 134.009 Z M 94.574 125.026 C 95.775 125.035 98.653 126.117 99.482 127.227 C 100.199 128.186 100.121 129.801 99.821 130.95 C 99.515 132.118 98.519 133.598 97.621 134.165 C 96.842 134.658 95.765 134.731 94.913 134.503 C 94.011 134.264 92.918 133.568 92.374 132.643 C 91.75 131.579 91.555 129.411 91.698 128.242 C 91.809 127.326 92.212 126.582 92.712 126.042 C 93.187 125.53 93.747 125.021 94.574 125.026 Z M 94.898 142.288 C 96.099 142.297 98.931 143.223 99.806 144.488 C 100.685 145.758 100.538 148.409 100.145 149.904 C 99.8 151.214 98.879 152.544 97.945 153.12 C 97.096 153.642 95.816 153.747 94.898 153.458 C 93.947 153.158 92.869 152.354 92.36 151.258 C 91.728 149.899 91.788 146.906 92.022 145.504 C 92.187 144.513 92.536 143.844 93.036 143.304 C 93.511 142.792 94.071 142.283 94.898 142.288 Z M 94.938 70.57 C 95.923 70.645 98.937 71.354 99.845 72.431 C 100.671 73.409 100.742 75.26 100.523 76.493 C 100.312 77.676 99.556 79.063 98.661 79.709 C 97.792 80.336 96.238 80.574 95.276 80.385 C 94.408 80.216 93.645 79.67 93.076 78.863 C 92.37 77.858 91.555 75.809 91.722 74.462 C 91.883 73.166 93.284 71.466 93.922 70.908 C 94.293 70.584 94.417 70.529 94.938 70.57 Z M 99.397 82.047 C 100.426 82.024 103.093 82.524 103.967 83.571 C 104.839 84.614 104.938 87.044 104.643 88.309 C 104.395 89.379 103.663 90.359 102.783 90.848 C 101.839 91.371 100.076 91.495 99.059 91.186 C 98.144 90.908 97.338 90.093 96.859 89.324 C 96.386 88.566 96.067 87.604 96.182 86.617 C 96.32 85.44 97.384 83.446 98.044 82.725 C 98.478 82.25 98.75 82.062 99.397 82.047 Z M 102.151 94.473 C 102.816 94.34 104.629 94.162 105.535 94.473 C 106.325 94.744 106.97 95.19 107.397 95.996 C 107.959 97.058 108.38 99.372 108.073 100.735 C 107.791 101.99 106.803 103.309 105.873 103.95 C 105.022 104.537 103.757 104.823 102.827 104.627 C 101.895 104.43 100.841 103.774 100.289 102.766 C 99.584 101.479 99.242 98.39 99.611 97.011 C 99.892 95.969 101.001 95.204 101.473 94.811 C 101.75 94.582 101.785 94.546 102.151 94.473 Z M 103.248 107.313 C 103.867 107.188 105.378 106.967 106.294 107.313 C 107.247 107.672 108.324 108.417 108.832 109.513 C 109.464 110.873 109.47 113.947 109.171 115.266 C 108.967 116.164 108.626 116.662 107.986 117.128 C 107.214 117.691 105.616 118.262 104.602 118.144 C 103.656 118.033 102.691 117.586 102.063 116.62 C 101.182 115.265 100.38 111.394 100.709 109.851 C 100.942 108.763 102.098 108.043 102.57 107.651 C 102.847 107.421 102.892 107.384 103.248 107.313 Z M 105.708 120.605 C 106.791 120.647 109.716 121.7 110.616 122.806 C 111.397 123.765 111.557 125.422 111.293 126.528 C 111.033 127.617 110.008 128.88 109.093 129.406 C 108.236 129.898 106.903 129.902 106.047 129.744 C 105.308 129.608 104.679 129.419 104.185 128.728 C 103.466 127.724 102.641 124.789 102.831 123.482 C 102.974 122.498 103.813 121.765 104.354 121.282 C 104.785 120.898 105.057 120.58 105.708 120.605 Z M 102.612 63.712 C 103.463 63.739 106.641 64.648 107.519 65.573 C 108.202 66.292 108.346 67.231 108.197 68.281 C 108 69.661 106.704 72.401 105.658 73.189 C 104.869 73.784 103.784 73.654 102.95 73.527 C 102.154 73.407 101.278 73.212 100.75 72.512 C 100.063 71.601 99.525 69.364 99.734 67.943 C 99.94 66.547 101.385 64.632 101.935 64.05 C 102.205 63.764 102.22 63.699 102.612 63.712 Z M 118.396 97.563 C 119.208 97.567 122.045 97.841 122.965 99.086 C 124.08 100.596 123.916 105.248 123.642 106.871 C 123.479 107.834 123.255 108.269 122.626 108.732 C 121.814 109.332 119.841 109.946 118.734 109.748 C 117.731 109.568 116.754 108.946 116.196 107.886 C 115.436 106.444 115.11 102.864 115.518 101.117 C 115.846 99.718 117.182 98.411 117.718 97.901 C 117.998 97.637 118.008 97.561 118.396 97.563 Z M 119.751 113.887 C 120.691 113.97 123.377 114.538 124.32 115.747 C 125.352 117.072 125.625 120.266 125.335 121.84 C 125.107 123.084 124.244 124.132 123.474 124.718 C 122.799 125.23 121.95 125.513 121.105 125.394 C 120.109 125.253 118.608 124.675 117.889 123.532 C 116.954 122.047 116.485 118.019 116.874 116.425 C 117.144 115.318 118.185 114.62 118.735 114.225 C 119.105 113.959 119.241 113.841 119.751 113.887 Z M 118.812 131.055 C 120.193 131.03 122.825 131.669 123.72 132.915 C 124.669 134.24 124.466 137.502 124.058 139.008 C 123.744 140.164 122.984 141.013 122.197 141.547 C 121.446 142.056 120.383 142.38 119.489 142.224 C 118.519 142.054 117.344 141.408 116.612 140.362 C 115.677 139.026 114.823 135.65 114.919 134.269 C 114.982 133.378 115.377 132.92 115.935 132.409 C 116.591 131.807 117.682 131.074 118.812 131.055 Z M 127.726 137.939 C 128.539 137.976 131.369 138.723 132.296 139.8 C 133.189 140.84 133.496 142.894 133.31 144.2 C 133.139 145.409 132.312 146.774 131.45 147.416 C 130.644 148.015 129.364 148.312 128.403 148.093 C 127.383 147.861 126.127 146.947 125.526 145.893 C 124.853 144.714 124.522 142.466 124.849 141.154 C 125.141 139.981 126.519 138.749 127.049 138.277 C 127.333 138.025 127.342 137.921 127.726 137.939 Z M 116.901 54.273 C 117.875 54.199 120.251 54.363 121.131 55.289 C 122.063 56.267 122.366 58.95 122.147 60.196 C 121.976 61.165 121.374 61.915 120.623 62.396 C 119.792 62.93 118.239 63.29 117.239 63.073 C 116.274 62.864 115.24 62.089 114.7 61.212 C 114.12 60.268 113.836 58.568 114.023 57.489 C 114.193 56.51 114.992 55.484 115.547 54.949 C 115.97 54.542 116.262 54.321 116.901 54.273 Z M 123.225 66.529 C 124.256 66.544 126.962 67.485 127.795 68.391 C 128.458 69.113 128.512 70.008 128.472 71.099 C 128.419 72.526 127.87 75.331 126.949 76.345 C 126.203 77.164 124.906 77.511 123.903 77.36 C 122.818 77.198 121.309 76.311 120.687 75.16 C 119.959 73.813 119.999 70.794 120.348 69.407 C 120.605 68.386 121.331 67.689 121.871 67.206 C 122.302 66.822 122.583 66.519 123.225 66.529 Z M 125.071 81.947 C 126.045 81.873 129.042 82.343 129.979 83.47 C 130.939 84.625 130.921 87.487 130.656 88.886 C 130.449 89.981 129.934 90.883 129.133 91.424 C 128.249 92.021 126.395 92.239 125.409 92.101 C 124.628 91.991 124.011 91.807 123.548 91.086 C 122.846 89.991 122.294 86.651 122.533 85.163 C 122.713 84.041 123.562 83.162 124.056 82.623 C 124.401 82.246 124.523 81.989 125.071 81.947 Z M 138.82 53.799 C 138.528 54.876 137.789 55.57 136.958 55.999 C 136.071 56.459 134.48 56.597 133.574 56.338 C 132.785 56.112 132.175 55.635 131.712 54.815 C 131.676 54.751 131.64 54.683 131.604 54.61 C 131.284 54.339 131.003 53.995 130.784 53.561 C 129.957 51.923 129.63 47.185 130.107 45.438 C 130.422 44.286 131.273 43.718 131.969 43.238 C 132.587 42.813 133.118 42.495 133.999 42.562 C 135.302 42.658 138.34 43.528 139.246 44.762 C 140.089 45.908 139.899 47.905 139.584 49.5 C 139.472 50.068 139.288 50.725 139.05 51.387 C 139.061 52.339 138.975 53.228 138.82 53.799 Z M 136.724 59.736 C 137.755 59.751 140.411 60.432 141.294 61.598 C 142.213 62.812 142.26 65.682 141.971 67.013 C 141.754 68.015 141.222 68.73 140.448 69.213 C 139.558 69.769 137.742 70.148 136.724 69.89 C 135.812 69.659 135.052 68.966 134.524 68.029 C 133.857 66.844 133.245 64.281 133.509 62.951 C 133.725 61.862 134.759 60.948 135.37 60.413 C 135.827 60.014 136.082 59.727 136.724 59.736 Z M 140.164 72.347 C 141.228 72.446 143.641 73.417 144.394 74.547 C 145.125 75.641 145.06 77.746 144.733 78.947 C 144.448 79.996 143.751 80.997 142.871 81.485 C 141.928 82.008 140.206 82.16 139.148 81.824 C 138.134 81.502 137.084 80.52 136.61 79.624 C 136.152 78.759 136.027 77.607 136.271 76.577 C 136.547 75.412 137.707 73.702 138.472 73.024 C 139.019 72.537 139.439 72.278 140.164 72.347 Z M 139.849 86.197 C 140.744 86.289 143.294 86.896 144.08 88.059 C 144.937 89.33 144.835 92.436 144.418 93.814 C 144.102 94.857 143.36 95.587 142.556 96.014 C 141.733 96.45 140.402 96.572 139.51 96.352 C 138.666 96.143 137.804 95.718 137.31 94.828 C 136.639 93.618 136.229 90.512 136.633 89.075 C 136.959 87.918 138.221 86.973 138.834 86.536 C 139.22 86.259 139.351 86.146 139.849 86.197 Z M 143.455 102.202 C 144.579 102.295 146.631 103.243 147.348 104.402 C 148.104 105.622 148.007 108.206 147.686 109.48 C 147.438 110.464 146.914 111.198 146.163 111.68 C 145.333 112.213 143.78 112.573 142.779 112.356 C 141.814 112.147 140.749 111.486 140.241 110.494 C 139.607 109.263 139.614 106.345 139.901 105.079 C 140.102 104.196 140.523 103.691 141.087 103.218 C 141.686 102.714 142.554 102.128 143.455 102.202 Z M 144.426 114.74 C 145.247 114.794 147.742 115.26 148.621 116.229 C 149.503 117.199 149.882 119.318 149.704 120.561 C 149.546 121.668 148.783 122.84 147.945 123.403 C 147.111 123.963 145.614 124.107 144.696 123.944 C 143.892 123.802 143.168 123.486 142.666 122.726 C 141.975 121.681 141.299 118.925 141.583 117.583 C 141.818 116.47 143.072 115.424 143.614 115.01 C 143.93 114.769 144 114.712 144.426 114.74 Z M 147.273 39.554 C 148.217 39.599 150.906 40.434 151.741 41.585 C 152.574 42.735 152.439 45.094 152.282 46.458 C 152.152 47.583 151.939 48.648 151.199 49.3 C 150.369 50.034 148.387 50.596 147.273 50.383 C 146.253 50.188 145.233 49.335 144.701 48.353 C 144.091 47.222 143.888 45.149 144.16 43.75 C 144.421 42.407 145.566 40.741 146.19 40.095 C 146.571 39.702 146.734 39.529 147.273 39.554 Z M 155.931 34.156 C 156.866 34.187 159.062 34.673 159.857 35.646 C 160.687 36.661 160.944 38.962 160.669 40.248 C 160.424 41.392 159.537 42.576 158.638 43.09 C 157.765 43.591 156.262 43.58 155.389 43.361 C 154.652 43.176 154.082 42.82 153.63 42.143 C 153.038 41.255 152.374 39.336 152.547 38.082 C 152.716 36.86 153.904 35.312 154.577 34.698 C 155.03 34.286 155.319 34.136 155.931 34.156 Z M 157.228 48.973 C 158.026 48.84 159.794 48.855 160.747 49.243 C 161.601 49.59 162.379 50.177 162.777 51.003 C 163.235 51.951 163.333 53.605 163.048 54.793 C 162.758 55.998 161.969 57.48 161.018 58.177 C 160.1 58.849 158.536 59.178 157.499 58.989 C 156.521 58.811 155.498 58.179 154.927 57.229 C 154.225 56.063 153.792 53.427 154.114 52.085 C 154.382 50.971 155.551 50.019 156.145 49.514 C 156.543 49.174 156.707 49.058 157.228 48.973 Z M 149.393 56.444 C 150.441 56.586 152.824 57.685 153.589 58.744 C 154.269 59.686 154.357 61.136 154.13 62.264 C 153.895 63.44 152.966 64.957 152.1 65.648 C 151.343 66.253 150.275 66.507 149.393 66.46 C 148.515 66.413 147.435 65.93 146.821 65.378 C 146.252 64.865 145.936 64.185 145.738 63.347 C 145.495 62.324 145.369 60.637 145.738 59.557 C 146.086 58.537 147.077 57.491 147.769 56.985 C 148.301 56.595 148.697 56.349 149.393 56.444 Z M 153.192 67.968 C 153.961 67.87 155.357 67.907 156.17 68.239 C 156.903 68.539 157.538 68.96 157.93 69.728 C 158.436 70.719 158.781 72.761 158.472 74.06 C 158.169 75.326 157.157 76.854 156.17 77.443 C 155.27 77.982 153.837 77.917 152.921 77.714 C 152.116 77.535 151.394 77.228 150.892 76.496 C 150.228 75.53 149.605 73.261 149.809 71.894 C 149.997 70.621 151.164 69.123 151.839 68.509 C 152.291 68.097 152.615 68.042 153.192 67.968 Z M 162.958 76.308 C 163.672 76.192 165.131 76.208 165.936 76.578 C 166.685 76.923 167.306 77.5 167.696 78.338 C 168.185 79.388 168.554 81.481 168.238 82.67 C 167.955 83.73 167.064 84.773 166.207 85.241 C 165.381 85.693 164.121 85.729 163.229 85.512 C 162.368 85.303 161.45 84.852 160.928 84.024 C 160.281 82.998 159.867 80.671 160.116 79.421 C 160.327 78.359 161.325 77.354 161.875 76.849 C 162.253 76.503 162.462 76.389 162.958 76.308 Z M 155.85 84.314 C 156.802 84.409 158.788 85.026 159.504 86.074 C 160.295 87.228 160.347 89.967 160.046 91.217 C 159.82 92.155 159.254 92.776 158.557 93.248 C 157.801 93.76 156.51 94.18 155.579 94.06 C 154.662 93.942 153.579 93.44 153.007 92.571 C 152.307 91.506 151.905 89.036 152.195 87.698 C 152.447 86.534 153.524 85.4 154.226 84.856 C 154.753 84.447 155.175 84.247 155.85 84.314 Z M 157.68 97.776 C 158.714 97.785 161.085 98.483 161.876 99.536 C 162.674 100.597 162.723 102.937 162.418 104.139 C 162.165 105.133 161.437 105.964 160.659 106.439 C 159.865 106.922 158.574 107.155 157.68 106.981 C 156.822 106.812 155.902 106.336 155.379 105.492 C 154.718 104.424 154.316 101.825 154.567 100.619 C 154.759 99.699 155.496 99.069 156.056 98.589 C 156.548 98.166 156.964 97.77 157.68 97.776 Z M 164.916 89.337 C 165.675 89.206 166.87 89.253 167.623 89.608 C 168.349 89.949 169.03 90.561 169.383 91.367 C 169.801 92.322 169.929 94.145 169.653 95.157 C 169.42 96.015 168.905 96.753 168.165 97.188 C 167.314 97.687 165.606 97.949 164.645 97.729 C 163.808 97.536 163.086 96.957 162.615 96.24 C 162.086 95.436 161.682 94.014 161.802 92.991 C 161.921 91.986 162.693 90.758 163.292 90.149 C 163.768 89.663 164.27 89.447 164.916 89.337 Z M 166.984 104.821 C 168.019 104.829 170.348 105.553 171.181 106.58 C 172.003 107.594 172.245 109.758 171.993 110.911 C 171.779 111.886 171.057 112.733 170.233 113.213 C 169.339 113.733 167.71 113.999 166.713 113.754 C 165.797 113.528 164.896 112.857 164.413 111.994 C 163.857 111.004 163.639 109.043 163.871 107.933 C 164.069 106.99 164.787 106.158 165.36 105.633 C 165.846 105.187 166.268 104.814 166.984 104.821 Z M 157.36 111.709 C 158.332 111.484 160.321 111.351 161.42 111.709 C 162.381 112.022 163.239 112.606 163.722 113.469 C 164.277 114.459 164.605 116.188 164.264 117.53 C 163.881 119.033 162.222 121.153 161.15 121.996 C 160.356 122.621 159.674 122.949 158.713 122.808 C 157.409 122.619 154.744 121.129 153.976 119.966 C 153.354 119.024 153.465 117.858 153.705 116.718 C 153.983 115.395 155.134 113.325 155.871 112.521 C 156.361 111.988 156.674 111.867 157.36 111.709 Z M 171.392 120.552 C 172.522 120.578 174.577 121.325 175.317 122.312 C 176.044 123.28 176.129 125.159 175.859 126.373 C 175.599 127.54 174.766 128.879 173.829 129.485 C 172.907 130.082 171.373 130.279 170.309 130.027 C 169.253 129.776 168.028 128.892 167.466 127.997 C 166.918 127.122 166.703 125.785 166.925 124.748 C 167.158 123.66 168.145 122.339 168.956 121.635 C 169.666 121.018 170.459 120.531 171.392 120.552 Z M 157.631 127.536 C 158.575 127.582 161.299 128.57 162.099 129.567 C 162.78 130.418 162.79 131.765 162.64 132.816 C 162.487 133.887 161.972 135.274 161.151 135.929 C 160.315 136.597 158.637 136.906 157.631 136.742 C 156.731 136.594 155.823 136.113 155.331 135.252 C 154.695 134.143 154.437 131.351 154.789 130.109 C 155.061 129.153 156.015 128.507 156.549 128.078 C 156.938 127.767 157.093 127.511 157.631 127.536 Z M 169.728 32.96 C 170.381 32.901 171.94 32.883 172.706 33.23 C 173.373 33.532 173.855 34.019 174.196 34.719 C 174.614 35.582 174.953 37.167 174.737 38.238 C 174.527 39.283 173.812 40.471 172.977 41.081 C 172.142 41.691 170.692 41.978 169.728 41.894 C 168.866 41.818 167.983 41.481 167.428 40.811 C 166.774 40.021 166.154 38.367 166.345 37.155 C 166.551 35.839 168.274 33.789 168.916 33.23 C 169.242 32.947 169.333 32.995 169.728 32.96 Z M 200.275 32.051 C 201.512 32.072 203.472 33.09 204.2 34.081 C 204.868 34.99 204.957 36.37 204.742 37.6 C 204.495 39.013 203.517 41.264 202.441 42.068 C 201.503 42.768 199.957 42.839 198.921 42.609 C 197.94 42.391 196.92 41.783 196.349 40.849 C 195.663 39.727 195.305 37.236 195.537 35.976 C 195.72 34.982 196.308 34.309 197.026 33.675 C 197.83 32.966 199.131 32.032 200.275 32.051 Z M 183.182 31.607 C 183.85 31.462 185.039 31.305 185.89 31.607 C 186.807 31.932 187.939 32.735 188.461 33.637 C 189 34.569 189.139 36.141 189.002 37.157 C 188.884 38.044 188.591 38.902 187.92 39.458 C 187.131 40.111 185.447 40.744 184.265 40.541 C 183.006 40.324 181.236 39.024 180.61 37.969 C 180.059 37.04 180.083 35.697 180.339 34.72 C 180.591 33.76 181.548 32.654 182.1 32.148 C 182.477 31.803 182.698 31.712 183.182 31.607 Z M 198.755 46.257 C 199.328 46.129 200.217 46.011 200.921 46.257 C 201.711 46.533 202.738 47.154 203.222 48.016 C 203.777 49.007 204.02 50.742 203.764 52.077 C 203.491 53.497 202.392 55.532 201.462 56.273 C 200.747 56.844 199.871 56.983 199.026 56.815 C 198.034 56.617 196.533 55.809 195.913 54.785 C 195.234 53.666 195.046 51.537 195.372 50.182 C 195.68 48.892 197.016 47.409 197.672 46.798 C 198.075 46.423 198.301 46.357 198.755 46.257 Z M 195.757 59.988 C 196.674 59.801 198.938 59.616 200.088 59.988 C 201.068 60.305 201.908 60.905 202.39 61.748 C 202.928 62.691 203.186 64.382 202.931 65.538 C 202.68 66.681 201.884 68.037 200.901 68.651 C 199.879 69.29 198.016 69.478 196.84 69.192 C 195.736 68.925 194.651 68.096 193.998 67.163 C 193.312 66.182 192.766 64.506 192.915 63.372 C 193.054 62.311 194.114 61.071 194.674 60.529 C 195.048 60.169 195.206 60.101 195.757 59.988 Z M 198.407 71.591 C 199.637 71.578 201.309 72.324 202.062 73.35 C 202.877 74.46 203.091 76.696 202.874 78.223 C 202.663 79.715 201.925 81.588 200.843 82.419 C 199.787 83.233 197.744 83.491 196.512 83.232 C 195.389 82.995 194.288 82.239 193.67 81.201 C 192.945 79.984 192.582 77.407 192.858 76.057 C 193.081 74.958 193.782 74.203 194.617 73.486 C 195.562 72.675 197.156 71.602 198.407 71.591 Z M 184.081 42.814 C 185.116 42.822 187.502 43.59 188.278 44.573 C 189 45.49 189.08 47.313 188.819 48.363 C 188.585 49.301 187.861 50.187 187.059 50.664 C 186.215 51.166 184.72 51.411 183.81 51.206 C 182.993 51.021 182.251 50.453 181.78 49.716 C 181.236 48.865 180.819 47.242 180.967 46.197 C 181.105 45.231 181.87 44.193 182.457 43.626 C 182.938 43.16 183.365 42.807 184.081 42.814 Z M 170.426 45.187 C 171.329 45.182 173.8 45.774 174.623 46.677 C 175.38 47.506 175.624 49.158 175.435 50.196 C 175.257 51.174 174.518 52.244 173.675 52.767 C 172.787 53.32 171.079 53.503 170.155 53.309 C 169.403 53.152 168.818 52.772 168.396 52.091 C 167.846 51.204 167.347 49.133 167.584 48.03 C 167.789 47.075 168.8 46.196 169.343 45.729 C 169.726 45.399 169.89 45.191 170.426 45.187 Z M 183.437 55.16 C 183.964 55.082 184.9 54.913 185.603 55.16 C 186.393 55.435 187.417 56.023 187.904 56.919 C 188.492 58.001 188.733 60.273 188.445 61.521 C 188.2 62.587 187.528 63.57 186.686 64.094 C 185.797 64.645 184.155 64.917 183.167 64.635 C 182.235 64.369 181.315 63.569 180.865 62.604 C 180.335 61.469 180.222 59.242 180.594 58.002 C 180.919 56.921 182.083 55.844 182.625 55.431 C 182.942 55.188 183.074 55.213 183.437 55.16 Z M 171.975 56.32 C 173.134 56.326 175.675 57.268 176.441 58.35 C 177.154 59.354 177.07 61.319 176.712 62.411 C 176.393 63.387 175.497 64.289 174.682 64.713 C 173.905 65.115 172.785 65.139 171.975 64.983 C 171.218 64.837 170.449 64.547 169.944 63.9 C 169.326 63.109 168.827 61.369 168.861 60.245 C 168.892 59.219 169.375 58.063 169.944 57.403 C 170.454 56.812 171.118 56.315 171.975 56.32 Z M 183.323 67.304 C 183.945 67.169 185.019 67.061 185.759 67.304 C 186.509 67.55 187.352 68.018 187.79 68.794 C 188.322 69.735 188.607 71.753 188.332 72.854 C 188.091 73.812 187.326 74.682 186.571 75.155 C 185.831 75.618 184.748 75.896 183.864 75.696 C 182.894 75.478 181.581 74.535 181.021 73.667 C 180.495 72.845 180.296 71.641 180.48 70.689 C 180.672 69.697 181.68 68.387 182.24 67.846 C 182.612 67.485 182.853 67.407 183.323 67.304 Z M 183.779 78.118 C 184.518 78.102 187.361 78.35 188.245 79.336 C 189.153 80.349 189.289 82.95 189.057 84.21 C 188.874 85.204 188.285 85.992 187.569 86.511 C 186.817 87.055 185.522 87.442 184.591 87.323 C 183.674 87.206 182.591 86.702 182.019 85.834 C 181.319 84.77 180.899 82.253 181.207 80.961 C 181.468 79.864 182.773 78.795 183.237 78.389 C 183.473 78.182 183.451 78.126 183.779 78.118 Z M 186.968 90.55 C 188.017 90.657 189.939 91.634 190.623 92.581 C 191.245 93.441 191.378 94.851 191.165 95.83 C 190.955 96.787 190.225 97.88 189.405 98.401 C 188.566 98.934 187.098 99.172 186.156 98.942 C 185.262 98.725 184.334 98.006 183.855 97.183 C 183.334 96.289 183.109 94.667 183.314 93.664 C 183.497 92.76 184.163 91.882 184.802 91.362 C 185.4 90.876 186.141 90.466 186.968 90.55 Z M 188.058 99.258 C 188.589 99.152 189.975 98.963 190.765 99.258 C 191.553 99.552 192.358 100.176 192.795 101.017 C 193.312 102.014 193.622 103.903 193.336 105.078 C 193.069 106.182 192.204 107.407 191.306 107.921 C 190.432 108.421 188.99 108.498 188.058 108.192 C 187.147 107.893 186.2 107.089 185.756 106.162 C 185.26 105.122 185.143 103.236 185.485 102.1 C 185.799 101.059 187.052 99.935 187.516 99.529 C 187.752 99.321 187.765 99.316 188.058 99.258 Z M 190.819 111.084 C 191.863 111.126 194.003 111.856 194.744 112.843 C 195.47 113.812 195.562 115.803 195.285 116.904 C 195.045 117.863 194.327 118.729 193.526 119.206 C 192.682 119.708 191.219 119.976 190.277 119.747 C 189.382 119.53 188.457 118.831 187.976 117.987 C 187.438 117.045 187.216 115.255 187.434 114.197 C 187.626 113.273 188.315 112.418 188.924 111.896 C 189.466 111.431 190.04 111.053 190.819 111.084 Z M 191.912 122.165 C 192.957 122.275 195.359 123.277 196.108 124.196 C 196.716 124.939 196.817 126.012 196.65 126.903 C 196.469 127.863 195.752 129.178 194.89 129.745 C 194.006 130.326 192.398 130.553 191.37 130.286 C 190.377 130.028 189.312 129.083 188.799 128.256 C 188.319 127.484 188.058 126.432 188.258 125.549 C 188.476 124.578 189.586 123.25 190.287 122.706 C 190.815 122.298 191.212 122.091 191.912 122.165 Z M 198.713 85.106 C 199.695 85.191 202.174 86.292 202.91 87.136 C 203.459 87.766 203.425 88.486 203.452 89.302 C 203.482 90.257 203.342 91.694 202.91 92.551 C 202.524 93.318 201.899 93.966 201.15 94.311 C 200.345 94.681 199.027 94.813 198.172 94.582 C 197.375 94.366 196.615 93.897 196.142 93.092 C 195.536 92.063 195.055 89.776 195.33 88.49 C 195.574 87.346 196.705 86.19 197.36 85.648 C 197.822 85.266 198.098 85.053 198.713 85.106 Z M 201.602 96.482 C 202.594 96.5 204.513 97.085 205.257 97.971 C 205.995 98.851 206.296 100.638 206.069 101.761 C 205.851 102.838 204.937 104.089 204.038 104.604 C 203.165 105.104 201.69 105.16 200.789 104.875 C 199.957 104.609 199.193 103.919 198.759 103.114 C 198.274 102.214 198.013 100.6 198.218 99.595 C 198.402 98.691 199.099 97.816 199.706 97.294 C 200.249 96.829 200.836 96.468 201.602 96.482 Z M 207.412 107.344 C 208.368 107.465 210.122 108.079 210.796 109.104 C 211.557 110.259 211.638 112.997 211.337 114.247 C 211.112 115.185 210.589 115.842 209.849 116.277 C 208.998 116.777 207.325 117.065 206.329 116.819 C 205.411 116.594 204.511 115.921 204.028 115.06 C 203.473 114.069 203.216 112.212 203.486 110.999 C 203.747 109.831 204.762 108.47 205.517 107.885 C 206.102 107.432 206.678 107.25 207.412 107.344 Z M 205.554 119.823 C 206.175 119.686 207.25 119.579 207.991 119.823 C 208.741 120.069 209.549 120.614 210.021 121.311 C 210.533 122.067 210.939 123.327 210.833 124.289 C 210.725 125.267 210.144 126.521 209.344 127.132 C 208.505 127.772 206.796 128.08 205.825 127.944 C 205.004 127.828 204.267 127.447 203.794 126.725 C 203.188 125.801 202.757 123.506 202.982 122.394 C 203.162 121.506 203.982 120.791 204.471 120.364 C 204.836 120.044 205.084 119.925 205.554 119.823 Z M 211.497 29.903 C 212.45 29.997 214.436 30.615 215.152 31.662 C 215.942 32.817 215.994 35.556 215.693 36.806 C 215.467 37.744 214.945 38.402 214.204 38.837 C 213.353 39.336 211.647 39.599 210.685 39.378 C 209.848 39.187 209.127 38.662 208.655 37.889 C 208.079 36.947 207.628 35.079 207.843 33.828 C 208.052 32.601 209.149 31.062 209.872 30.445 C 210.391 30.002 210.823 29.837 211.497 29.903 Z M 208.131 41.215 C 209.323 41.326 212.058 42.787 212.868 43.787 C 213.464 44.522 213.578 45.378 213.41 46.224 C 213.213 47.216 212.236 48.741 211.38 49.337 C 210.619 49.866 209.603 50.083 208.673 49.878 C 207.583 49.639 205.931 48.56 205.288 47.578 C 204.7 46.676 204.557 45.278 204.747 44.329 C 204.923 43.447 205.627 42.549 206.236 42.027 C 206.779 41.562 207.32 41.14 208.131 41.215 Z M 206.974 55.027 C 207.835 54.876 209.453 54.753 210.494 55.027 C 211.466 55.284 212.458 55.788 213.065 56.517 C 213.689 57.264 214.237 58.504 214.148 59.495 C 214.057 60.534 213.27 61.999 212.389 62.608 C 211.509 63.216 209.983 63.162 208.869 63.149 C 207.825 63.138 206.698 63.024 205.891 62.608 C 205.145 62.223 204.476 61.596 204.131 60.848 C 203.761 60.042 203.606 58.754 203.86 57.87 C 204.111 56.997 205.03 56.035 205.621 55.569 C 206.069 55.215 206.368 55.133 206.974 55.027 Z M 207.943 67.76 C 208.613 67.638 209.557 67.518 210.379 67.76 C 211.313 68.035 212.612 68.662 213.222 69.519 C 213.851 70.404 214.171 72.067 214.034 73.039 C 213.918 73.86 213.425 74.558 212.816 75.07 C 212.154 75.625 211.168 76.19 210.108 76.152 C 208.778 76.105 206.258 75.062 205.371 74.122 C 204.672 73.382 204.415 72.331 204.559 71.414 C 204.72 70.393 205.925 68.88 206.589 68.302 C 207.046 67.904 207.397 67.859 207.943 67.76 Z M 211.582 77.749 C 212.657 77.715 215.185 78.316 216.048 79.238 C 216.825 80.067 217.069 81.578 216.861 82.758 C 216.632 84.059 215.468 85.853 214.424 86.683 C 213.484 87.431 212.089 87.892 211.041 87.766 C 210.017 87.643 208.767 86.89 208.198 86.006 C 207.596 85.074 207.392 83.43 207.656 82.216 C 207.934 80.943 209.191 79.29 209.958 78.561 C 210.5 78.046 210.847 77.772 211.582 77.749 Z M 213.419 92.568 C 214.77 92.583 217.03 93.193 217.885 94.057 C 218.608 94.788 218.817 96.104 218.697 97.035 C 218.58 97.952 218.09 99.002 217.209 99.607 C 216.101 100.367 213.456 100.955 212.065 100.69 C 210.884 100.464 209.737 99.557 209.222 98.659 C 208.722 97.785 208.732 96.283 208.951 95.411 C 209.137 94.674 209.542 94.107 210.17 93.651 C 210.929 93.1 212.229 92.555 213.419 92.568 Z M 217.812 105.547 C 218.541 105.445 220.372 105.244 221.332 105.547 C 222.172 105.812 222.89 106.339 223.362 107.036 C 223.875 107.792 224.247 109.106 224.175 110.014 C 224.108 110.854 223.841 111.76 223.092 112.315 C 222.101 113.049 219.41 113.629 218.083 113.398 C 216.996 113.209 216.032 112.459 215.511 111.638 C 214.979 110.8 214.721 109.36 214.97 108.389 C 215.219 107.421 216.458 106.232 217 105.818 C 217.317 105.576 217.398 105.604 217.812 105.547 Z M 219.184 115.375 C 220.046 115.261 221.751 115.259 222.704 115.646 C 223.557 115.994 224.305 116.668 224.734 117.406 C 225.168 118.152 225.474 119.23 225.275 120.113 C 225.057 121.084 224.231 122.422 223.245 122.956 C 222.169 123.538 220.065 123.558 218.913 123.226 C 217.935 122.945 217.089 122.268 216.612 121.467 C 216.111 120.622 215.843 119.159 216.071 118.218 C 216.288 117.323 217.24 116.383 217.83 115.917 C 218.28 115.563 218.579 115.456 219.184 115.375 Z M 221.48 32.804 C 222.643 32.844 224.971 33.851 225.676 34.835 C 226.287 35.686 226.253 37.15 225.947 38.083 C 225.648 38.993 224.758 39.957 223.916 40.384 C 223.084 40.807 221.793 40.886 220.938 40.655 C 220.141 40.439 219.381 39.84 218.908 39.166 C 218.413 38.459 218.049 37.341 218.096 36.459 C 218.142 35.581 218.596 34.498 219.179 33.887 C 219.741 33.298 220.568 32.773 221.48 32.804 Z M 220.013 44.578 C 220.544 44.472 221.921 44.319 222.72 44.578 C 223.495 44.83 224.315 45.326 224.75 46.067 C 225.249 46.918 225.537 48.591 225.291 49.586 C 225.066 50.504 224.287 51.415 223.532 51.888 C 222.791 52.351 221.693 52.575 220.825 52.429 C 219.93 52.279 218.818 51.719 218.252 50.94 C 217.641 50.098 217.215 48.45 217.44 47.42 C 217.658 46.43 219.007 45.255 219.471 44.849 C 219.707 44.642 219.72 44.637 220.013 44.578 Z M 221.654 55.515 C 222.71 55.521 225.493 56.091 226.391 57.004 C 227.159 57.783 227.376 59.272 227.203 60.253 C 227.036 61.206 226.327 62.296 225.444 62.824 C 224.458 63.414 222.484 63.642 221.383 63.366 C 220.424 63.126 219.557 62.385 219.081 61.607 C 218.598 60.814 218.343 59.549 218.54 58.629 C 218.74 57.697 219.699 56.561 220.3 56.056 C 220.743 55.684 221.007 55.511 221.654 55.515 Z M 222.633 65.718 C 223.395 65.522 224.728 65.419 225.611 65.718 C 226.486 66.013 227.438 66.699 227.913 67.477 C 228.396 68.27 228.604 69.592 228.454 70.455 C 228.319 71.238 227.939 71.982 227.236 72.486 C 226.352 73.12 224.324 73.749 223.175 73.569 C 222.157 73.409 221.127 72.652 220.603 71.809 C 220.051 70.921 219.869 69.212 220.062 68.289 C 220.219 67.537 220.819 66.968 221.28 66.53 C 221.689 66.142 222.043 65.87 222.633 65.718 Z M 224.333 76.9 C 224.951 76.786 225.775 76.637 226.499 76.9 C 227.353 77.21 228.597 78.049 229.071 78.93 C 229.544 79.81 229.627 81.279 229.342 82.179 C 229.077 83.013 228.387 83.776 227.582 84.21 C 226.681 84.695 225.058 84.996 224.062 84.751 C 223.145 84.525 222.238 83.794 221.762 82.991 C 221.259 82.147 220.991 80.684 221.22 79.743 C 221.437 78.849 222.389 77.908 222.979 77.441 C 223.428 77.087 223.806 76.997 224.333 76.9 Z M 225.79 89.376 C 226.549 89.205 227.64 89.107 228.498 89.376 C 229.405 89.662 230.549 90.316 231.069 91.136 C 231.602 91.974 231.839 93.443 231.611 94.385 C 231.394 95.279 230.731 96.201 229.852 96.686 C 228.815 97.258 226.63 97.49 225.52 97.227 C 224.629 97.017 223.961 96.435 223.489 95.739 C 222.977 94.982 222.558 93.691 222.677 92.761 C 222.794 91.844 223.58 90.756 224.166 90.188 C 224.647 89.722 225.144 89.522 225.79 89.376 Z M 229.098 25.399 C 229.761 25.224 230.61 25.083 231.535 25.399 C 232.81 25.835 235.237 27.478 236.002 28.513 C 236.537 29.236 236.664 29.894 236.543 30.678 C 236.397 31.625 235.708 33.176 234.783 33.791 C 233.807 34.442 231.964 34.626 230.722 34.333 C 229.482 34.04 228.085 32.942 227.339 32.032 C 226.687 31.238 226.218 30.26 226.256 29.325 C 226.296 28.324 227.179 26.863 227.744 26.211 C 228.158 25.735 228.541 25.546 229.098 25.399 Z M 238.072 33.85 C 239.014 33.865 241.719 34.582 242.54 35.61 C 243.309 36.574 243.297 38.519 243.081 39.67 C 242.891 40.684 242.371 41.677 241.592 42.242 C 240.749 42.853 239.102 43.28 238.072 43.054 C 237.082 42.837 235.995 42.009 235.501 41.024 C 234.934 39.894 234.867 37.571 235.23 36.422 C 235.522 35.495 236.455 34.82 236.989 34.391 C 237.378 34.08 237.529 33.841 238.072 33.85 Z M 240.648 44.387 C 241.626 44.442 244.069 45.164 244.845 46.148 C 245.568 47.065 245.67 48.855 245.386 49.938 C 245.12 50.955 244.212 52.042 243.355 52.51 C 242.53 52.962 241.261 53.034 240.377 52.781 C 239.505 52.529 238.555 51.843 238.077 51.021 C 237.557 50.127 237.306 48.537 237.535 47.501 C 237.753 46.519 238.694 45.435 239.294 44.929 C 239.738 44.557 240.028 44.354 240.648 44.387 Z M 227.534 48.904 C 228.583 48.834 231.365 49.425 232.271 50.394 C 233.094 51.27 233.281 53.17 233.084 54.184 C 232.919 55.037 232.27 55.742 231.595 56.214 C 230.888 56.709 229.83 57.158 228.888 57.026 C 227.812 56.876 226.152 55.951 225.503 54.996 C 224.882 54.079 224.769 52.4 224.962 51.477 C 225.12 50.724 225.719 50.154 226.181 49.716 C 226.589 49.329 226.871 48.949 227.534 48.904 Z M 230.723 60.901 C 231.372 60.75 232.186 60.655 232.889 60.901 C 233.679 61.177 234.716 61.881 235.191 62.66 C 235.674 63.453 235.93 64.718 235.732 65.638 C 235.533 66.57 234.815 67.687 233.972 68.211 C 233.084 68.762 231.415 68.973 230.453 68.752 C 229.616 68.559 228.859 68.021 228.423 67.263 C 227.906 66.366 227.675 64.444 227.881 63.473 C 228.045 62.703 228.605 62.146 229.099 61.713 C 229.563 61.307 230.119 61.041 230.723 60.901 Z M 230.846 71.119 C 231.413 71.007 232.94 70.82 233.824 71.119 C 234.698 71.413 235.648 72.077 236.125 72.878 C 236.627 73.722 236.895 75.185 236.667 76.127 C 236.45 77.022 235.709 77.951 234.907 78.428 C 234.063 78.93 232.645 79.145 231.658 78.97 C 230.712 78.801 229.653 78.26 229.087 77.48 C 228.475 76.638 228.048 74.99 228.275 73.961 C 228.492 72.971 229.842 71.796 230.305 71.39 C 230.54 71.182 230.547 71.177 230.846 71.119 Z M 232.11 82.343 C 232.926 82.237 234.494 82.267 235.358 82.614 C 236.111 82.915 236.731 83.401 237.119 84.102 C 237.564 84.913 237.888 86.41 237.66 87.351 C 237.443 88.246 236.78 89.167 235.9 89.653 C 234.864 90.224 232.68 90.456 231.568 90.194 C 230.678 89.983 229.973 89.445 229.538 88.705 C 229.039 87.855 228.751 86.181 228.997 85.185 C 229.222 84.268 230.166 83.351 230.756 82.885 C 231.206 82.531 231.519 82.421 232.11 82.343 Z M 232.727 98.366 C 233.769 98.444 236.143 99.119 236.924 100.126 C 237.672 101.092 237.813 102.799 237.466 104.187 C 237.058 105.809 235.306 108.272 234.081 109.195 C 233.145 109.901 232.059 110.15 231.103 110.007 C 230.117 109.861 228.837 109.171 228.261 108.248 C 227.62 107.221 227.352 105.37 227.72 103.916 C 228.137 102.26 230.12 99.723 231.103 98.908 C 231.697 98.416 232.023 98.314 232.727 98.366 Z M 242.309 56.008 C 243.023 55.892 244.482 55.908 245.287 56.279 C 246.036 56.623 246.692 57.215 247.048 58.038 C 247.48 59.041 247.635 60.999 247.318 62.099 C 247.041 63.059 246.314 63.927 245.558 64.4 C 244.818 64.864 243.734 65.141 242.851 64.942 C 241.881 64.723 240.574 63.83 240.009 62.911 C 239.439 61.985 239.252 60.463 239.467 59.392 C 239.677 58.347 240.667 57.091 241.227 56.549 C 241.6 56.189 241.813 56.088 242.309 56.008 Z M 243.346 67.036 C 244.086 67.019 246.929 67.267 247.814 68.253 C 248.72 69.266 248.906 71.876 248.626 73.126 C 248.398 74.137 247.668 74.951 246.866 75.428 C 246.022 75.93 244.559 76.198 243.617 75.969 C 242.723 75.752 241.799 75.072 241.315 74.209 C 240.76 73.219 240.489 71.325 240.774 70.148 C 241.042 69.046 242.337 67.742 242.805 67.306 C 243.037 67.09 243.018 67.043 243.346 67.036 Z M 244.785 79.837 C 245.77 79.788 247.911 80.117 248.711 81.055 C 249.571 82.063 249.774 84.722 249.523 85.928 C 249.331 86.849 248.774 87.523 248.034 87.959 C 247.183 88.458 245.476 88.721 244.514 88.5 C 243.678 88.308 242.956 87.749 242.485 87.011 C 241.94 86.16 241.538 84.572 241.672 83.491 C 241.8 82.46 242.562 81.258 243.161 80.649 C 243.638 80.164 244.076 79.871 244.785 79.837 Z M 244.326 89.683 C 245.214 89.672 247.182 89.861 247.98 90.766 C 248.897 91.807 249.335 94.629 249.063 96.045 C 248.834 97.236 247.931 98.374 247.033 98.887 C 246.159 99.388 244.656 99.377 243.784 99.158 C 243.047 98.974 242.448 98.686 242.024 97.94 C 241.407 96.855 240.904 93.871 241.212 92.526 C 241.451 91.483 242.381 90.691 242.972 90.224 C 243.421 89.871 243.721 89.691 244.326 89.683 Z M 246.874 101.642 C 247.777 101.71 249.555 102.244 250.258 103.13 C 250.994 104.058 251.307 106.089 251.07 107.191 C 250.865 108.147 250.112 109.015 249.311 109.493 C 248.466 109.994 247.003 110.262 246.062 110.034 C 245.167 109.817 244.238 109.076 243.761 108.274 C 243.259 107.43 242.984 106.031 243.219 105.025 C 243.461 103.996 244.548 102.727 245.25 102.183 C 245.777 101.775 246.21 101.591 246.874 101.642 Z M 246.228 113.379 C 246.755 113.301 247.69 113.133 248.393 113.379 C 249.184 113.655 250.214 114.296 250.695 115.138 C 251.233 116.081 251.505 117.808 251.236 118.928 C 250.977 120.009 250.104 121.257 249.205 121.772 C 248.333 122.271 246.829 122.261 245.957 122.042 C 245.22 121.857 244.619 121.533 244.198 120.823 C 243.62 119.855 243.093 117.463 243.385 116.221 C 243.639 115.144 244.873 114.064 245.415 113.65 C 245.733 113.408 245.864 113.433 246.228 113.379 Z M 248.813 48.955 C 249.714 48.901 252.172 49.131 253.01 50.038 C 253.863 50.96 254.081 53.326 253.822 54.504 C 253.606 55.489 252.817 56.333 252.062 56.806 C 251.322 57.269 250.201 57.447 249.355 57.347 C 248.536 57.249 247.609 56.952 247.054 56.264 C 246.384 55.433 245.814 53.5 245.971 52.338 C 246.116 51.265 247.171 50.038 247.731 49.496 C 248.103 49.135 248.273 48.986 248.813 48.955 Z M 249.222 39.592 C 250.388 39.598 252.362 40.174 253.147 41.081 C 253.908 41.959 254.164 43.779 253.959 44.871 C 253.771 45.872 253.119 46.91 252.2 47.443 C 251.122 48.069 248.838 48.316 247.597 47.984 C 246.517 47.696 245.494 46.81 245.026 45.954 C 244.574 45.128 244.501 43.86 244.755 42.976 C 245.006 42.103 245.772 41.239 246.514 40.675 C 247.259 40.109 248.213 39.586 249.222 39.592 Z M 250.906 26.643 C 251.859 26.738 253.87 27.484 254.561 28.404 C 255.216 29.277 255.133 30.701 255.103 31.923 C 255.07 33.221 254.808 34.98 254.291 35.984 C 253.868 36.803 253.3 37.396 252.53 37.744 C 251.674 38.13 250.182 38.3 249.282 38.015 C 248.448 37.75 247.691 37.13 247.252 36.255 C 246.705 35.166 246.4 33.134 246.71 31.652 C 247.034 30.107 248.434 27.939 249.282 27.185 C 249.827 26.7 250.232 26.577 250.906 26.643 Z" style="fill: rgb(128, 176, 109); fill-opacity: 1; fill-rule: nonzero; stroke: none; stroke-dasharray: none; stroke-dashoffset: 0px; stroke-linecap: butt; stroke-linejoin: miter; stroke-miterlimit: 4; stroke-opacity: 1; stroke-width: 2px; paint-order: normal; vector-effect: none; opacity: 1; mix-blend-mode: normal; isolation: auto;"/>
  <path fill="rgb(255,0,0)" stroke="rgb(255,0,0)" stroke-width="0" opacity="0.9490196078431372" d="M 265.563 25.078 C 266.904 25.084 269.386 25.691 270.26 26.916 C 271.206 28.241 271.16 31.604 270.668 33.042 C 270.29 34.147 269.333 34.911 268.422 35.289 C 267.5 35.669 266.247 35.686 265.155 35.289 C 263.866 34.82 261.946 33.335 261.275 32.225 C 260.734 31.33 260.668 30.312 260.866 29.367 C 261.082 28.337 261.889 27.021 262.705 26.303 C 263.476 25.624 264.458 25.074 265.563 25.078 Z M 270.461 37.202 C 271.723 37.128 274.694 37.987 275.566 39.039 C 276.313 39.941 276.253 41.433 275.975 42.714 C 275.65 44.205 274.395 46.627 273.32 47.411 C 272.482 48.021 271.396 48.065 270.461 47.819 C 269.418 47.546 267.987 46.636 267.398 45.574 C 266.767 44.436 266.75 42.331 266.989 41.081 C 267.194 40.017 267.8 39.083 268.419 38.427 C 268.982 37.829 269.552 37.255 270.461 37.202 Z M 261.05 38.281 C 262.074 38.403 264.923 39.387 265.747 40.527 C 266.496 41.565 266.502 43.465 266.155 44.611 C 265.83 45.685 264.757 46.77 263.909 47.266 C 263.168 47.699 262.266 47.864 261.459 47.674 C 260.562 47.464 259.443 46.735 258.804 45.836 C 258.089 44.833 257.377 42.964 257.579 41.752 C 257.771 40.596 259.149 39.219 259.825 38.689 C 260.264 38.346 260.464 38.212 261.05 38.281 Z M 260.139 49.543 C 261.073 49.598 264.364 50.62 265.244 51.789 C 266.023 52.822 265.92 54.657 265.652 55.872 C 265.4 57.024 264.723 58.355 263.815 58.936 C 262.893 59.525 261.154 59.633 260.139 59.344 C 259.218 59.082 258.356 58.437 257.893 57.507 C 257.321 56.357 257.154 53.921 257.485 52.605 C 257.763 51.494 258.81 50.425 259.322 49.951 C 259.631 49.665 259.686 49.515 260.139 49.543 Z M 270.073 50.678 C 271.138 50.618 274.282 51.385 275.178 52.516 C 276.01 53.567 275.959 55.782 275.587 57.008 C 275.251 58.114 274.188 59.168 273.34 59.663 C 272.599 60.096 271.697 60.261 270.89 60.072 C 269.993 59.861 268.817 59.139 268.235 58.233 C 267.591 57.231 267.257 55.323 267.419 54.15 C 267.561 53.119 268.333 52.081 268.848 51.495 C 269.235 51.055 269.44 50.714 270.073 50.678 Z M 273.352 62.916 C 274.284 62.931 277.561 63.623 278.456 64.754 C 279.288 65.804 279.201 68.077 278.864 69.246 C 278.584 70.226 277.877 71.041 277.027 71.492 C 276.09 71.989 274.31 72.152 273.352 71.9 C 272.555 71.692 271.95 71.214 271.514 70.472 C 270.962 69.534 270.493 67.606 270.697 66.388 C 270.888 65.24 272.012 63.848 272.535 63.324 C 272.837 63.021 272.894 62.909 273.352 62.916 Z M 262.226 62.308 C 263.124 62.359 265.313 62.76 266.105 63.738 C 266.958 64.79 267.209 67.206 266.922 68.638 C 266.656 69.969 265.734 71.464 264.676 72.11 C 263.622 72.754 261.624 72.79 260.593 72.518 C 259.77 72.301 259.192 71.78 258.754 71.088 C 258.248 70.288 257.729 69.029 257.938 67.821 C 258.2 66.306 260.154 63.478 261.001 62.716 C 261.461 62.304 261.661 62.277 262.226 62.308 Z M 261.825 76.203 C 262.71 76.27 265.709 77.351 266.522 78.45 C 267.231 79.408 267.23 81.007 266.931 82.125 C 266.627 83.255 265.552 84.633 264.684 85.188 C 263.952 85.656 263.071 85.812 262.234 85.597 C 261.242 85.342 259.747 84.345 259.17 83.35 C 258.6 82.366 258.463 80.793 258.762 79.675 C 259.065 78.544 260.431 77.134 261.009 76.611 C 261.335 76.317 261.384 76.17 261.825 76.203 Z M 274.81 75.535 C 275.742 75.55 279.008 76.206 279.914 77.373 C 280.786 78.494 280.63 80.891 280.323 82.274 C 280.054 83.489 279.312 84.693 278.485 85.336 C 277.717 85.935 276.567 86.334 275.627 86.154 C 274.589 85.955 273.169 85.054 272.563 83.907 C 271.85 82.555 271.757 79.571 272.155 78.19 C 272.458 77.137 273.491 76.365 273.992 75.943 C 274.309 75.677 274.352 75.527 274.81 75.535 Z M 275.183 87.162 C 276.303 87.209 279.079 88.354 279.879 89.408 C 280.546 90.285 280.51 91.635 280.288 92.675 C 280.058 93.749 279.358 95.157 278.45 95.738 C 277.529 96.327 275.733 96.397 274.775 96.146 C 273.978 95.938 273.375 95.504 272.937 94.717 C 272.344 93.652 271.864 90.987 272.12 89.816 C 272.309 88.952 273.008 88.427 273.549 87.979 C 274.041 87.571 274.446 87.131 275.183 87.162 Z M 261.335 88.695 C 262.138 88.535 264.227 88.251 265.419 88.695 C 266.608 89.138 267.916 90.309 268.483 91.349 C 269.004 92.307 269.21 93.599 268.891 94.616 C 268.544 95.722 267.414 96.968 266.236 97.679 C 264.951 98.456 262.643 99.183 261.335 98.905 C 260.209 98.665 259.205 97.692 258.681 96.659 C 258.1 95.511 257.923 93.454 258.272 92.166 C 258.598 90.963 259.941 89.626 260.519 89.103 C 260.846 88.808 260.895 88.782 261.335 88.695 Z M 264.422 102.789 C 265.955 102.752 268.621 103.46 269.528 104.627 C 270.398 105.748 270.332 108.224 269.936 109.528 C 269.591 110.663 268.692 111.664 267.689 112.183 C 266.618 112.737 264.879 112.807 263.606 112.591 C 262.365 112.38 260.857 111.928 260.134 110.958 C 259.346 109.898 259.072 107.398 259.317 106.261 C 259.502 105.406 260.044 104.957 260.747 104.423 C 261.622 103.758 263.064 102.822 264.422 102.789 Z M 274.063 98.978 C 275.203 98.737 277.546 98.505 278.964 98.978 C 280.318 99.43 281.837 100.73 282.436 101.632 C 282.88 102.303 283.051 102.87 282.844 103.674 C 282.544 104.843 281.168 107.111 279.781 107.963 C 278.383 108.821 275.91 109.175 274.472 108.779 C 273.186 108.427 271.987 107.245 271.408 106.125 C 270.826 105.001 270.755 103.147 271 102.041 C 271.207 101.111 271.869 100.312 272.429 99.795 C 272.911 99.351 273.295 99.14 274.063 98.978 Z M 274.482 112.535 C 275.463 112.54 278.884 113.226 279.996 114.373 C 281.013 115.422 281.474 117.634 281.221 118.866 C 280.996 119.961 280.008 120.997 278.975 121.52 C 277.828 122.101 275.709 122.3 274.482 121.928 C 273.377 121.593 272.342 120.652 271.828 119.683 C 271.301 118.689 271.119 117.125 271.42 116.006 C 271.723 114.877 273.087 113.466 273.665 112.944 C 273.992 112.648 274.015 112.533 274.482 112.535 Z M 261.082 116.454 C 262.361 116.294 266.639 116.801 267.82 117.884 C 268.749 118.735 268.896 120.493 268.637 121.56 C 268.387 122.593 267.128 123.731 266.391 124.214 C 265.84 124.575 265.52 124.68 264.758 124.623 C 263.506 124.53 260.242 123.757 259.244 122.785 C 258.481 122.042 258.327 120.843 258.428 119.926 C 258.528 119.004 259.342 117.859 259.856 117.272 C 260.243 116.831 260.392 116.542 261.082 116.454 Z M 282.149 30.262 C 282.979 30.191 285.566 30.118 286.438 31.079 C 287.427 32.167 287.556 35.668 287.255 37 C 287.048 37.914 286.548 38.452 285.825 38.838 C 284.956 39.302 283.165 39.535 282.149 39.246 C 281.228 38.984 280.362 38.314 279.904 37.408 C 279.355 36.328 279.159 34.085 279.495 32.916 C 279.776 31.936 280.831 31.092 281.333 30.67 C 281.649 30.404 281.706 30.3 282.149 30.262 Z M 283.44 40.525 C 284.322 40.51 287.223 40.939 288.137 41.955 C 289.025 42.943 289.203 45.207 288.954 46.447 C 288.737 47.528 287.875 48.524 287.116 49.102 C 286.422 49.631 285.546 50.051 284.665 49.919 C 283.602 49.76 281.841 48.73 281.194 47.673 C 280.55 46.618 280.497 44.748 280.786 43.589 C 281.048 42.536 282.112 41.408 282.623 40.934 C 282.932 40.649 282.99 40.534 283.44 40.525 Z M 286.445 52.201 C 287.516 52.315 289.601 53.292 290.324 54.446 C 291.074 55.644 291.014 58.093 290.732 59.348 C 290.512 60.328 290.055 61.083 289.303 61.593 C 288.44 62.18 286.695 62.669 285.628 62.41 C 284.594 62.16 283.329 61.349 282.973 60.165 C 282.493 58.571 283.541 54.2 284.403 53.017 C 284.935 52.285 285.638 52.114 286.445 52.201 Z M 286.366 65.017 C 287.372 64.927 290.162 65.504 291.063 66.447 C 291.873 67.295 292.138 69.055 291.879 70.122 C 291.629 71.156 290.481 72.281 289.633 72.777 C 288.892 73.21 288.02 73.4 287.183 73.185 C 286.191 72.93 284.675 71.807 284.12 70.939 C 283.652 70.207 283.57 69.306 283.712 68.488 C 283.864 67.604 284.626 66.42 285.141 65.833 C 285.527 65.394 285.744 65.073 286.366 65.017 Z M 294.551 24.779 C 295.688 24.923 299.061 26.269 300.063 27.433 C 300.853 28.349 301.089 29.668 300.88 30.701 C 300.661 31.784 299.696 33.174 298.634 33.763 C 297.496 34.395 295.31 34.507 294.141 34.171 C 293.161 33.89 292.463 33.172 291.896 32.334 C 291.259 31.393 290.468 29.823 290.67 28.658 C 290.883 27.436 292.576 25.764 293.324 25.187 C 293.785 24.832 293.939 24.701 294.551 24.779 Z M 307.058 26.802 C 308.418 26.793 312.331 27.755 313.387 29.047 C 314.289 30.149 314.14 32.106 313.796 33.539 C 313.436 35.039 312.14 37.111 311.141 37.828 C 310.389 38.368 309.61 38.48 308.691 38.236 C 307.449 37.907 305.186 36.565 304.403 35.174 C 303.615 33.777 303.695 31.19 303.994 29.864 C 304.221 28.86 304.863 28.135 305.424 27.618 C 305.905 27.174 306.248 26.806 307.058 26.802 Z M 297.638 35.422 C 299.104 35.486 302.207 36.764 303.152 38.077 C 303.988 39.239 303.909 41.281 303.56 42.569 C 303.234 43.773 302.376 45.043 301.314 45.633 C 300.177 46.264 297.924 46.333 296.822 46.041 C 295.977 45.816 295.424 45.453 294.984 44.611 C 294.334 43.367 294.013 39.867 294.167 38.485 C 294.265 37.603 294.485 37.139 294.984 36.647 C 295.563 36.076 296.548 35.376 297.638 35.422 Z M 308.451 41.869 C 309.702 41.819 311.952 42.606 312.74 43.707 C 313.544 44.831 313.498 47.178 313.148 48.608 C 312.822 49.942 311.959 51.433 310.902 52.079 C 309.848 52.724 308.011 52.865 306.818 52.488 C 305.631 52.112 304.315 50.828 303.755 49.833 C 303.267 48.964 303.119 47.95 303.346 46.974 C 303.61 45.848 304.69 44.367 305.593 43.503 C 306.417 42.714 307.364 41.913 308.451 41.869 Z M 297.187 49.807 C 298.519 49.483 301.59 50.498 302.7 51.645 C 303.718 52.695 304.091 54.831 303.926 56.138 C 303.777 57.313 302.997 58.62 302.088 59.201 C 301.167 59.789 299.427 59.898 298.413 59.609 C 297.491 59.347 296.726 58.718 296.166 57.771 C 295.446 56.554 294.639 53.845 294.941 52.462 C 295.194 51.307 296.103 50.072 297.187 49.807 Z M 306.806 58.231 C 308.08 58.251 311.014 58.937 311.91 60.069 C 312.742 61.119 312.654 63.392 312.318 64.561 C 312.038 65.541 311.331 66.356 310.481 66.807 C 309.544 67.304 307.887 67.451 306.806 67.215 C 305.796 66.995 304.79 66.419 304.151 65.581 C 303.439 64.651 302.768 62.826 302.926 61.702 C 303.069 60.677 304.053 59.627 304.763 59.047 C 305.372 58.551 305.917 58.215 306.806 58.231 Z M 300.467 66.475 C 301.693 66.472 303.533 67.095 304.347 68.313 C 305.359 69.827 305.581 74.021 305.164 75.664 C 304.877 76.794 304.145 77.463 303.325 77.91 C 302.465 78.38 301.011 78.491 300.058 78.319 C 299.198 78.163 298.478 77.932 297.813 77.094 C 296.807 75.828 295.179 71.911 295.362 70.355 C 295.489 69.271 296.406 68.738 297.2 68.108 C 298.071 67.42 299.318 66.479 300.467 66.475 Z M 304.891 78.462 C 305.773 78.447 308.667 78.842 309.588 79.892 C 310.511 80.946 310.749 83.372 310.404 84.792 C 310.076 86.142 308.812 87.638 307.749 88.264 C 306.802 88.823 305.417 88.937 304.482 88.672 C 303.594 88.421 302.688 87.685 302.237 86.834 C 301.739 85.898 301.582 84.411 301.827 83.159 C 302.102 81.764 303.469 79.531 304.074 78.87 C 304.385 78.532 304.441 78.47 304.891 78.462 Z M 297.946 88.591 C 298.695 88.44 300.559 88.204 301.622 88.591 C 302.662 88.97 303.763 89.868 304.277 90.837 C 304.803 91.83 304.985 93.395 304.685 94.513 C 304.382 95.643 303.396 97.006 302.439 97.576 C 301.536 98.114 300.189 98.304 299.172 97.984 C 298.066 97.638 296.756 96.444 296.108 95.33 C 295.454 94.203 295.038 92.341 295.291 91.246 C 295.511 90.297 296.627 89.422 297.13 88.999 C 297.446 88.734 297.518 88.678 297.946 88.591 Z M 301.79 100.628 C 302.813 100.749 305.686 101.82 306.486 102.874 C 307.152 103.751 307.133 105.026 306.895 106.141 C 306.625 107.402 305.695 109.322 304.648 110.021 C 303.679 110.667 301.988 110.718 300.973 110.429 C 300.051 110.167 299.19 109.522 298.726 108.592 C 298.155 107.443 297.922 104.994 298.318 103.69 C 298.664 102.556 299.9 101.513 300.564 101.036 C 301.012 100.715 301.204 100.558 301.79 100.628 Z M 322.617 25.974 C 323.502 26.04 326.324 26.981 327.313 28.219 C 328.32 29.481 328.803 32.213 328.538 33.529 C 328.332 34.551 327.603 35.264 326.701 35.775 C 325.619 36.388 323.379 36.868 322.208 36.591 C 321.232 36.361 320.432 35.729 319.962 34.754 C 319.345 33.473 319.112 30.488 319.553 29.036 C 319.914 27.848 321.23 26.855 321.8 26.382 C 322.134 26.104 322.175 25.94 322.617 25.974 Z M 327.926 38.084 C 328.78 37.915 331.193 37.648 332.418 38.084 C 333.525 38.477 334.571 39.437 335.073 40.329 C 335.539 41.158 335.693 42.175 335.481 43.188 C 335.228 44.396 334.32 46.361 333.235 47.068 C 332.188 47.75 330.257 47.722 329.151 47.476 C 328.221 47.27 327.51 46.861 326.904 46.048 C 326.116 44.986 325.113 42.471 325.271 41.146 C 325.402 40.049 326.597 38.966 327.109 38.492 C 327.418 38.206 327.474 38.173 327.926 38.084 Z M 321.941 46.795 C 323.134 46.971 326.867 48.444 327.863 49.858 C 328.715 51.068 328.607 53.182 328.272 54.351 C 327.991 55.33 327.365 56.134 326.434 56.597 C 325.285 57.168 322.775 57.363 321.533 57.006 C 320.528 56.717 319.799 56.069 319.287 55.167 C 318.674 54.086 318.206 52.023 318.47 50.675 C 318.723 49.38 320.028 47.783 320.716 47.204 C 321.148 46.84 321.323 46.704 321.941 46.795 Z M 330.924 57.648 C 331.806 57.633 334.564 57.953 335.619 59.078 C 336.79 60.324 337.473 63.663 337.253 65.203 C 337.086 66.38 336.364 67.17 335.416 67.858 C 334.271 68.689 331.894 69.686 330.515 69.492 C 329.295 69.32 328.036 68.275 327.452 67.245 C 326.85 66.183 326.709 64.571 327.044 63.162 C 327.431 61.525 329.388 58.798 330.107 58.056 C 330.446 57.707 330.473 57.656 330.924 57.648 Z M 319.689 63.763 C 320.668 63.726 324.203 64.287 325.203 65.193 C 325.973 65.89 326.088 66.86 326.019 68.052 C 325.925 69.703 325.014 73.247 323.773 74.382 C 322.748 75.319 320.797 75.384 319.689 75.199 C 318.763 75.042 317.958 74.615 317.442 73.769 C 316.761 72.648 316.361 70.087 316.626 68.46 C 316.881 66.899 318.268 64.832 318.872 64.172 C 319.182 63.833 319.218 63.78 319.689 63.763 Z M 332.367 73.999 C 333.291 73.885 336.468 74.55 337.472 75.836 C 338.558 77.227 338.755 80.708 338.289 82.371 C 337.905 83.741 336.821 84.843 335.635 85.434 C 334.353 86.072 331.975 86.199 330.733 85.842 C 329.728 85.553 329.002 84.977 328.488 84.005 C 327.809 82.724 327.288 79.74 327.671 78.287 C 327.983 77.1 329.193 76.216 329.916 75.633 C 330.476 75.181 331.124 75.117 331.55 74.816 C 331.904 74.564 331.869 74.06 332.367 73.999 Z M 318.784 78.274 C 319.722 78.069 321.343 77.907 322.46 78.274 C 323.592 78.646 324.923 79.4 325.523 80.52 C 326.211 81.803 326.281 84.259 325.931 85.83 C 325.605 87.296 324.726 88.934 323.686 89.709 C 322.714 90.432 321.204 90.816 320.009 90.527 C 318.678 90.204 316.87 88.921 316.13 87.463 C 315.301 85.832 315.342 82.353 315.722 80.928 C 315.973 79.986 316.61 79.539 317.151 79.091 C 317.642 78.684 318.075 78.429 318.784 78.274 Z M 333.833 89.51 C 334.525 89.369 336.039 89.139 337.1 89.51 C 338.292 89.927 339.93 91.021 340.572 92.165 C 341.197 93.28 341.337 95.003 340.981 96.249 C 340.614 97.527 339.471 99.149 338.326 99.72 C 337.21 100.276 335.323 100.154 334.242 99.72 C 333.264 99.327 332.508 98.529 331.995 97.474 C 331.363 96.171 330.858 93.478 331.178 92.165 C 331.429 91.138 332.514 90.34 333.017 89.918 C 333.332 89.653 333.417 89.595 333.833 89.51 Z M 318.324 92.987 C 319.671 93.047 322.186 94.054 323.02 95.234 C 323.808 96.347 323.716 98.426 323.429 99.726 C 323.167 100.91 322.586 102.134 321.591 102.789 C 320.455 103.538 318.007 103.877 316.69 103.606 C 315.581 103.379 314.572 102.757 314.035 101.768 C 313.379 100.56 313.249 97.772 313.627 96.459 C 313.923 95.429 314.697 94.789 315.465 94.213 C 316.253 93.621 317.226 92.94 318.324 92.987 Z M 327.49 99.791 C 328.372 99.776 331.25 100.083 332.187 101.221 C 333.215 102.468 333.306 105.732 333.003 107.347 C 332.761 108.644 332.106 109.823 331.166 110.41 C 330.171 111.031 328.228 111.166 327.081 110.819 C 326.009 110.494 324.95 109.606 324.427 108.572 C 323.846 107.425 323.656 105.466 324.019 104.08 C 324.388 102.671 326.026 100.815 326.673 100.2 C 327.009 99.881 327.04 99.8 327.49 99.791 Z M 336.77 108.814 C 337.844 108.912 341.951 110.398 343.1 111.876 C 344.101 113.164 344.204 115.345 343.917 116.777 C 343.651 118.108 342.794 119.589 341.671 120.248 C 340.467 120.956 338.012 121.014 336.77 120.657 C 335.764 120.368 335.005 119.871 334.524 118.819 C 333.825 117.293 333.645 113.111 334.116 111.468 C 334.44 110.335 335.451 109.644 335.953 109.222 C 336.269 108.956 336.295 108.769 336.77 108.814 Z M 315.708 109.515 C 317.068 109.506 320.953 110.388 322.037 111.761 C 323.025 113.013 322.63 115.817 322.445 117.07 C 322.32 117.92 322.277 118.432 321.629 118.908 C 320.65 119.628 317.661 120.456 316.116 120.134 C 314.72 119.844 313.293 118.659 312.644 117.479 C 311.987 116.284 311.926 114.225 312.236 112.986 C 312.507 111.903 313.421 110.914 314.073 110.332 C 314.593 109.868 314.898 109.52 315.708 109.515 Z M 329.17 117.534 C 330.302 117.625 332.323 118.304 333.05 119.371 C 333.817 120.498 333.765 122.89 333.458 124.272 C 333.188 125.488 332.591 126.741 331.62 127.335 C 330.555 127.987 328.297 128.078 327.128 127.743 C 326.148 127.462 325.337 126.784 324.881 125.906 C 324.358 124.896 324.169 123.079 324.473 121.821 C 324.779 120.56 325.841 119.054 326.72 118.35 C 327.447 117.767 328.246 117.459 329.17 117.534 Z M 342.14 28.975 C 343.119 28.939 346.628 29.362 347.653 30.405 C 348.558 31.325 348.69 33.179 348.47 34.489 C 348.243 35.837 347.378 37.646 346.224 38.369 C 345.026 39.119 342.565 39.134 341.324 38.777 C 340.317 38.488 339.536 37.845 339.077 36.939 C 338.529 35.859 338.263 33.724 338.669 32.447 C 339.056 31.224 340.691 29.906 341.324 29.384 C 341.672 29.097 341.669 28.993 342.14 28.975 Z M 352.394 36.127 C 353.866 36.001 358.131 36.05 359.541 37.557 C 361.024 39.141 361.166 43.958 360.766 45.725 C 360.504 46.888 359.939 47.413 358.929 47.971 C 357.522 48.749 354.134 49.576 352.394 49.196 C 350.924 48.875 349.596 47.845 348.924 46.542 C 348.152 45.049 348.104 42.087 348.515 40.416 C 348.865 38.989 350.008 37.649 350.761 36.944 C 351.304 36.436 351.549 36.2 352.394 36.127 Z M 341.702 48.151 C 343.234 47.8 347.363 49.173 348.439 50.398 C 349.269 51.34 349.204 52.883 348.849 54.073 C 348.448 55.41 346.895 57.282 345.785 57.953 C 344.89 58.494 343.861 58.607 342.927 58.361 C 341.883 58.088 340.464 57.236 339.863 56.115 C 339.176 54.833 339.035 52.185 339.455 50.806 C 339.808 49.643 340.549 48.415 341.702 48.151 Z M 356.316 53.336 C 357.877 53.071 360.435 53.978 361.421 55.174 C 362.403 56.365 362.619 58.879 362.238 60.483 C 361.86 62.076 360.303 64.046 359.175 64.771 C 358.288 65.342 357.282 65.45 356.316 65.18 C 355.176 64.861 353.57 63.797 352.844 62.525 C 352.033 61.104 351.428 58.346 352.028 56.807 C 352.617 55.296 354.744 53.603 356.316 53.336 Z M 371.948 45.176 C 373.061 45.127 375.388 45.692 376.645 46.606 C 377.91 47.525 379.068 49.367 379.504 50.689 C 379.872 51.807 379.859 52.854 379.504 53.956 C 379.093 55.232 378.018 57.133 376.85 57.836 C 375.742 58.503 373.858 58.558 372.765 58.245 C 371.814 57.973 371.111 57.5 370.519 56.407 C 369.598 54.709 368.579 49.545 368.886 47.831 C 369.066 46.821 369.774 46.442 370.315 45.993 C 370.806 45.586 371.199 45.21 371.948 45.176 Z M 376.519 60.335 C 377.808 60.364 382.034 60.848 383.258 62.172 C 384.359 63.365 384.316 65.956 384.074 67.482 C 383.861 68.829 383.041 70.249 382.236 70.953 C 381.557 71.549 380.701 71.886 379.786 71.77 C 378.645 71.625 376.542 70.268 375.907 69.524 C 375.498 69.046 375.803 68.49 375.498 68.094 C 375.16 67.656 374.263 67.673 373.864 67.074 C 373.343 66.29 372.788 64.464 373.047 63.397 C 373.298 62.365 374.63 61.22 375.294 60.743 C 375.741 60.422 375.862 60.32 376.519 60.335 Z M 346.208 62.959 C 347.092 62.985 350.039 63.6 350.905 64.797 C 351.816 66.056 351.745 68.871 351.313 70.514 C 350.913 72.032 349.576 73.742 348.658 74.394 C 347.995 74.865 347.383 74.971 346.616 74.803 C 345.608 74.581 343.817 73.737 343.145 72.556 C 342.379 71.212 342.281 68.42 342.736 66.839 C 343.146 65.42 344.751 63.937 345.391 63.367 C 345.733 63.063 345.762 62.945 346.208 62.959 Z M 357.583 68.49 C 358.485 68.588 360.721 69.204 361.462 70.328 C 362.294 71.59 362.312 74.593 361.87 76.046 C 361.509 77.235 360.473 78.204 359.625 78.7 C 358.884 79.134 358.022 79.282 357.174 79.108 C 356.194 78.909 354.71 78.27 354.111 77.271 C 353.43 76.136 353.294 73.788 353.703 72.369 C 354.092 71.017 355.608 69.476 356.358 68.899 C 356.817 68.543 357.025 68.43 357.583 68.49 Z M 348.525 79.715 C 349.875 79.507 352.664 80.466 353.63 81.553 C 354.498 82.531 354.686 84.375 354.447 85.636 C 354.207 86.894 353.22 88.47 352.2 89.108 C 351.224 89.718 349.539 89.806 348.525 89.517 C 347.603 89.254 346.748 88.654 346.278 87.678 C 345.661 86.398 345.337 83.322 345.87 81.961 C 346.306 80.847 347.393 79.889 348.525 79.715 Z M 356.927 90.063 C 358.126 90.058 360.811 91.211 361.623 92.31 C 362.333 93.269 362.354 94.715 362.032 95.985 C 361.65 97.487 359.984 99.932 358.969 100.682 C 358.286 101.187 357.694 101.259 356.927 101.09 C 355.918 100.869 354.108 99.935 353.455 98.844 C 352.779 97.714 352.76 95.652 353.047 94.352 C 353.309 93.167 354.171 92.017 354.885 91.288 C 355.492 90.669 356.05 90.068 356.927 90.063 Z M 350.284 101.215 C 351.436 101.241 353.437 101.986 354.164 103.053 C 354.932 104.179 354.883 106.783 354.573 107.953 C 354.341 108.821 353.77 109.351 353.143 109.791 C 352.489 110.25 351.574 110.74 350.693 110.608 C 349.628 110.448 347.867 109.419 347.221 108.362 C 346.577 107.307 346.665 105.327 346.812 104.278 C 346.924 103.489 347.131 102.931 347.629 102.44 C 348.209 101.868 349.296 101.192 350.284 101.215 Z M 370.763 70.495 C 371.884 70.543 374.539 71.497 375.46 72.742 C 376.393 74.002 376.568 76.658 376.276 78.051 C 376.038 79.187 375.241 80.128 374.439 80.706 C 373.663 81.265 372.561 81.683 371.579 81.522 C 370.46 81.338 368.781 80.456 368.109 79.276 C 367.342 77.93 367.385 74.952 367.7 73.559 C 367.932 72.532 368.568 71.828 369.129 71.312 C 369.611 70.868 370.026 70.464 370.763 70.495 Z M 370.613 82.9 C 371.739 82.864 374.823 83.608 375.718 84.738 C 376.55 85.789 376.418 88.129 376.127 89.23 C 375.902 90.077 375.415 90.632 374.697 91.069 C 373.827 91.598 372.039 92.114 371.021 91.885 C 370.104 91.68 369.238 90.978 368.775 90.047 C 368.203 88.899 368.164 86.236 368.366 85.147 C 368.498 84.444 368.809 84.092 369.183 83.718 C 369.558 83.343 369.915 82.923 370.613 82.9 Z M 392.335 64.797 C 393.386 64.812 395.835 65.534 396.623 66.635 C 397.428 67.759 397.389 70.293 397.032 71.536 C 396.743 72.541 396.012 73.335 395.193 73.782 C 394.333 74.252 392.861 74.454 391.926 74.191 C 391.038 73.939 390.143 73.283 389.681 72.352 C 389.108 71.203 388.961 68.621 389.271 67.452 C 389.503 66.584 390.16 66.063 390.701 65.614 C 391.192 65.206 391.612 64.786 392.335 64.797 Z M 393.856 77.89 C 394.909 77.905 397.34 78.567 398.145 79.728 C 399.018 80.987 398.951 84.063 398.553 85.445 C 398.25 86.498 397.535 87.244 396.716 87.692 C 395.855 88.162 394.383 88.363 393.448 88.1 C 392.56 87.849 391.672 87.237 391.202 86.262 C 390.586 84.982 390.447 81.845 390.794 80.545 C 391.036 79.637 391.682 79.156 392.223 78.706 C 392.715 78.299 393.134 77.879 393.856 77.89 Z M 384.326 85.518 C 385.21 85.545 388.185 86.256 389.023 87.356 C 389.825 88.408 389.671 90.599 389.432 91.848 C 389.227 92.912 388.815 93.921 388.002 94.503 C 387.077 95.167 384.951 95.535 383.918 95.32 C 383.099 95.15 382.518 94.697 382.08 93.89 C 381.468 92.765 380.904 89.962 381.263 88.581 C 381.565 87.422 382.94 86.4 383.51 85.926 C 383.843 85.65 383.88 85.505 384.326 85.518 Z M 369.736 95.908 C 370.807 96.023 372.909 97.069 373.616 98.155 C 374.298 99.203 374.269 101.133 374.024 102.239 C 373.817 103.168 373.346 103.975 372.594 104.485 C 371.732 105.072 369.986 105.561 368.919 105.302 C 367.885 105.051 366.772 103.989 366.264 103.056 C 365.767 102.143 365.634 100.828 365.856 99.789 C 366.086 98.715 366.964 97.368 367.694 96.725 C 368.294 96.197 368.929 95.822 369.736 95.908 Z M 390.982 96.834 C 391.912 96.743 395.087 96.607 396.087 97.651 C 397.147 98.758 397.255 102.155 396.904 103.573 C 396.641 104.634 395.945 105.364 395.066 105.819 C 394.056 106.342 392.075 106.541 390.982 106.227 C 390.03 105.955 389.246 105.235 388.736 104.39 C 388.169 103.451 387.704 101.884 387.919 100.714 C 388.142 99.499 389.578 97.812 390.165 97.243 C 390.486 96.931 390.517 96.88 390.982 96.834 Z M 381.51 99.546 C 382.477 99.679 385.024 100.642 385.799 101.793 C 386.553 102.911 386.517 105.046 386.207 106.285 C 385.936 107.368 385.129 108.361 384.37 108.94 C 383.675 109.468 382.8 109.888 381.919 109.756 C 380.856 109.596 379.101 108.601 378.448 107.51 C 377.771 106.379 377.69 104.306 378.04 103.018 C 378.366 101.814 379.61 100.484 380.285 99.954 C 380.725 99.61 380.941 99.468 381.51 99.546 Z M 389.201 110.511 C 390.084 110.495 392.967 110.83 393.898 111.94 C 394.892 113.125 395.056 116.274 394.715 117.658 C 394.456 118.708 393.728 119.452 392.878 119.904 C 391.941 120.401 390.217 120.602 389.201 120.313 C 388.28 120.05 387.468 119.402 386.956 118.474 C 386.32 117.325 385.803 114.879 386.139 113.574 C 386.43 112.442 387.815 111.393 388.385 110.919 C 388.719 110.641 388.751 110.519 389.201 110.511 Z M 380.065 113.215 C 380.999 113.27 384.29 114.293 385.171 115.461 C 385.949 116.494 385.926 118.399 385.579 119.545 C 385.254 120.618 384.304 121.752 383.332 122.199 C 382.339 122.657 380.604 122.575 379.657 122.199 C 378.833 121.872 378.207 121.236 377.819 120.362 C 377.335 119.271 377.075 117.038 377.41 115.87 C 377.692 114.89 378.746 114.045 379.249 113.623 C 379.564 113.358 379.612 113.188 380.065 113.215 Z M 387.659 124.182 C 388.407 124.032 390.332 123.774 391.334 124.182 C 392.281 124.568 393.174 125.395 393.581 126.429 C 394.065 127.659 394.065 130.099 393.581 131.329 C 393.174 132.364 392.206 133.136 391.334 133.576 C 390.496 133.998 389.479 134.238 388.476 133.984 C 387.257 133.675 385.26 132.31 384.596 131.329 C 384.082 130.57 383.979 129.808 384.188 128.879 C 384.465 127.646 386.187 125.25 386.842 124.591 C 387.173 124.258 387.23 124.269 387.659 124.182 Z M 408.028 74.427 C 409.308 74.312 413.639 74.975 414.766 76.266 C 415.747 77.387 415.547 79.797 415.175 81.166 C 414.839 82.402 413.954 83.58 412.929 84.229 C 411.865 84.902 410.052 85.309 408.845 85.046 C 407.681 84.794 406.383 83.921 405.782 82.8 C 405.095 81.518 405.074 78.816 405.373 77.491 C 405.6 76.486 406.303 75.768 406.803 75.244 C 407.196 74.832 407.341 74.49 408.028 74.427 Z M 410.279 88.644 C 411.211 88.659 414.468 89.282 415.384 90.481 C 416.294 91.672 416.212 94.411 415.792 95.791 C 415.439 96.954 414.394 97.949 413.546 98.445 C 412.805 98.879 411.97 99.053 411.095 98.853 C 410.025 98.609 408.27 97.665 407.625 96.608 C 406.98 95.553 406.911 93.781 407.216 92.523 C 407.521 91.262 408.875 89.622 409.462 89.052 C 409.783 88.741 409.822 88.636 410.279 88.644 Z M 404.188 99.998 C 405.499 100.14 407.704 101.419 408.477 102.652 C 409.214 103.832 409.212 105.8 408.885 107.144 C 408.568 108.444 407.619 109.986 406.638 110.616 C 405.743 111.191 404.318 111.23 403.371 111.024 C 402.502 110.836 401.644 110.498 401.125 109.595 C 400.379 108.297 400.143 104.503 400.308 103.06 C 400.411 102.163 400.598 101.71 401.125 101.223 C 401.767 100.628 403.082 99.878 404.188 99.998 Z M 406.463 112.629 C 407.444 112.628 409.095 112.958 409.935 113.854 C 410.909 114.897 411.774 117.541 411.568 118.96 C 411.389 120.195 410.19 121.468 409.322 122.023 C 408.589 122.491 407.709 122.646 406.871 122.431 C 405.879 122.175 404.523 121.166 403.808 120.185 C 403.088 119.195 402.463 117.647 402.583 116.509 C 402.7 115.407 403.692 114.088 404.421 113.446 C 405.022 112.917 405.665 112.63 406.463 112.629 Z M 425.828 83.219 C 426.727 83.271 428.916 83.671 429.708 84.649 C 430.561 85.702 430.87 88.129 430.525 89.55 C 430.197 90.899 428.932 92.395 427.87 93.021 C 426.923 93.58 425.593 93.671 424.603 93.43 C 423.621 93.189 422.471 92.501 421.948 91.592 C 421.373 90.59 421.154 88.792 421.54 87.508 C 421.956 86.124 423.785 84.252 424.603 83.628 C 425.082 83.263 425.265 83.188 425.828 83.219 Z M 439.532 98.908 C 440.828 98.947 444.075 99.843 445.046 101.154 C 445.974 102.408 445.805 105.073 445.454 106.464 C 445.167 107.602 444.554 108.59 443.616 109.118 C 442.544 109.721 440.226 109.819 439.124 109.526 C 438.279 109.303 437.724 108.903 437.286 108.097 C 436.674 106.971 436.32 104.267 436.469 102.787 C 436.592 101.57 437.1 100.367 437.694 99.725 C 438.182 99.197 438.693 98.883 439.532 98.908 Z M 423.674 97.912 C 424.952 97.984 427.865 98.878 428.778 100.159 C 429.674 101.415 429.537 104.077 429.186 105.468 C 428.9 106.607 428.189 107.544 427.349 108.123 C 426.494 108.711 425.159 109.128 424.082 108.94 C 422.912 108.734 421.288 107.9 420.61 106.693 C 419.816 105.279 419.838 101.931 420.202 100.567 C 420.448 99.642 421.043 99.173 421.631 98.729 C 422.206 98.295 422.792 97.863 423.674 97.912 Z M 432.443 110.337 C 433.559 110.35 438.056 111.22 439.182 112.583 C 440.153 113.76 439.901 116.314 439.59 117.483 C 439.359 118.351 438.926 118.884 438.16 119.322 C 437.158 119.894 435.015 120.403 433.668 120.138 C 432.373 119.885 430.857 119.015 430.196 117.893 C 429.49 116.688 429.431 114.233 429.788 112.991 C 430.077 111.986 431.124 111.167 431.626 110.746 C 431.942 110.479 431.951 110.331 432.443 110.337 Z M 450.03 115.67 C 450.778 115.519 452.55 115.271 453.705 115.67 C 454.943 116.097 456.521 117.111 457.177 118.325 C 457.864 119.597 457.969 121.619 457.585 123.225 C 457.17 124.959 455.624 127.514 454.522 128.33 C 453.745 128.907 452.909 128.954 452.072 128.739 C 451.08 128.484 449.812 127.717 449.008 126.492 C 447.947 124.874 446.696 120.965 446.966 119.141 C 447.171 117.762 448.635 116.601 449.213 116.078 C 449.54 115.783 449.6 115.756 450.03 115.67 Z M 443.781 130.342 C 444.962 130.244 448.16 130.533 449.294 131.772 C 450.5 133.088 450.792 136.548 450.52 138.306 C 450.295 139.744 449.496 140.995 448.478 141.778 C 447.416 142.592 445.443 143.217 444.189 143.003 C 443.013 142.802 441.731 141.904 441.126 140.756 C 440.412 139.404 440.454 136.709 440.718 135.039 C 440.951 133.562 441.718 131.921 442.351 131.159 C 442.786 130.636 443.061 130.402 443.781 130.342 Z M 427.587 121.095 C 428.549 121.182 431.071 121.773 431.874 122.933 C 432.748 124.194 432.553 127.251 432.283 128.651 C 432.088 129.665 431.8 130.385 431.058 130.897 C 430.14 131.532 427.838 131.94 426.77 131.714 C 425.939 131.539 425.37 131.071 424.932 130.284 C 424.339 129.219 423.85 126.871 424.115 125.384 C 424.369 123.956 425.661 122.132 426.362 121.504 C 426.787 121.122 427.011 121.043 427.587 121.095 Z M 420.889 110.726 C 421.772 110.711 424.699 111.301 425.586 112.155 C 426.313 112.855 426.567 113.888 426.403 115.014 C 426.18 116.536 424.581 119.628 423.34 120.528 C 422.382 121.221 421.007 121.2 420.072 120.936 C 419.184 120.685 418.281 119.977 417.827 119.098 C 417.304 118.089 417.08 116.309 417.418 115.014 C 417.774 113.647 419.425 111.749 420.072 111.134 C 420.409 110.816 420.439 110.734 420.889 110.726 Z M 418.152 128.667 C 419.034 128.652 421.935 129.08 422.848 130.097 C 423.736 131.084 423.914 133.348 423.665 134.589 C 423.448 135.669 422.587 136.665 421.827 137.244 C 421.133 137.772 420.258 138.192 419.377 138.06 C 418.314 137.9 416.62 136.867 415.906 135.814 C 415.189 134.758 414.803 132.879 415.089 131.73 C 415.355 130.661 416.765 129.549 417.335 129.075 C 417.668 128.798 417.702 128.675 418.152 128.667 Z M 436.953 140.37 C 438.017 140.434 440.098 141.111 440.832 142.208 C 441.633 143.403 441.591 146.127 441.241 147.518 C 440.954 148.656 440.277 149.592 439.403 150.172 C 438.474 150.788 436.849 151.224 435.727 150.988 C 434.602 150.751 433.234 149.699 432.665 148.743 C 432.126 147.839 431.988 146.617 432.256 145.475 C 432.574 144.121 433.988 142.005 434.91 141.187 C 435.573 140.6 436.138 140.321 436.953 140.37 Z M 403.341 125.489 C 404.274 125.545 407.632 126.525 408.446 127.735 C 409.193 128.845 408.842 131.059 408.446 132.228 C 408.113 133.208 407.392 134.032 406.608 134.474 C 405.825 134.916 404.611 135.065 403.749 134.882 C 402.916 134.705 402.018 134.3 401.503 133.453 C 400.822 132.332 400.366 129.458 400.686 128.144 C 400.937 127.117 402.022 126.32 402.524 125.897 C 402.841 125.632 402.888 125.462 403.341 125.489 Z M 355.52 112.368 C 356.402 112.352 359.316 112.854 360.216 113.797 C 361.026 114.645 361.287 116.197 361.034 117.473 C 360.735 118.969 359.172 121.377 357.97 122.169 C 356.999 122.81 355.638 122.842 354.703 122.577 C 353.815 122.327 352.913 121.619 352.457 120.74 C 351.934 119.73 351.711 117.95 352.048 116.656 C 352.405 115.289 354.055 113.391 354.703 112.776 C 355.04 112.457 355.07 112.375 355.52 112.368 Z M 300.658 113.864 C 301.73 113.978 303.849 115.105 304.538 116.11 C 305.147 116.999 305.189 118.387 304.947 119.377 C 304.707 120.36 303.988 121.515 303.108 122.032 C 302.181 122.578 300.392 122.692 299.433 122.441 C 298.636 122.231 298.033 121.729 297.596 121.011 C 297.065 120.141 296.575 118.414 296.779 117.336 C 296.97 116.321 297.907 115.26 298.616 114.681 C 299.226 114.184 299.853 113.778 300.658 113.864 Z" style="fill: rgb(128, 176, 109); fill-opacity: 1; fill-rule: nonzero; stroke: none; stroke-dasharray: none; stroke-dashoffset: 0px; stroke-linecap: butt; stroke-linejoin: miter; stroke-miterlimit: 4; stroke-opacity: 1; stroke-width: 2px; paint-order: normal; vector-effect: none; opacity: 1; mix-blend-mode: normal; isolation: auto;"/>
  <path style="paint-order: fill; stroke: rgb(72, 169, 76); stroke-width: 0px; fill: rgb(46, 110, 25);" transform="matrix(0.030441, 1.739523, -2.970432, 0.051979, 2263.440186, -256.886871)" d="M 310.988 619.225 A 60.091 60.091 0 1 1 310.988 739.243 A 744.053 744.053 0 0 0 310.988 619.225 Z" bx:shape="crescent 314.133 679.234 60.091 186 0.494 1@65822ffe"/>
  <circle style="paint-order: stroke; stroke: rgb(46, 110, 25); stroke-width: 0px; fill: rgb(46, 110, 25);" cx="181.667" cy="307.272" r="36.584" transform="matrix(2.330833, 0, 0, 2.303297, -67.070549, -517.708984)"/>
  <path style="paint-order: fill; stroke: rgb(175, 176, 137); stroke-width: 0px; fill: rgb(175, 176, 137);" transform="matrix(0.025474, 1.455649, -2.619496, 0.045656, 2025.553589, -163.937332)" d="M 311.512 619.2 A 60.091 60.091 0 1 1 311.512 739.268 A 955.397 955.397 0 0 0 311.512 619.2 Z" bx:shape="crescent 314.133 679.234 60.091 185 0.494 1@0af28230"/>
  <path style="paint-order: fill; stroke: rgb(175, 176, 137); stroke-width: 0px; fill: rgb(227, 46, 46);" transform="matrix(0.022756, 1.300326, -2.406699, 0.041948, 1880.014648, -112.845589)" d="M 311.512 619.2 A 60.091 60.091 0 1 1 311.512 739.268 A 955.397 955.397 0 0 0 311.512 619.2 Z" bx:shape="crescent 314.133 679.234 60.091 185 0.494 1@0af28230"/>
  <circle style="" cx="321.057" cy="370.912" r="7.517"/>
  <circle style="" cx="248.271" cy="382.429" r="7.517"/>
  <circle style="" cx="218.854" cy="340.296" r="7.517"/>
  <circle style="" cx="140.308" cy="342.934" r="7.517"/>
  <circle style="" cx="186.298" cy="372.923" r="7.517"/>
  <circle style="" cx="283.194" cy="339.89" r="7.517"/>
  <circle style="" cx="359.268" cy="341.381" r="7.517"/>
  <circle style="paint-order: stroke; stroke-width: 17.5772px; fill: rgb(227, 46, 46); stroke: rgb(175, 176, 137);" cx="181.667" cy="307.272" r="36.584" transform="matrix(1.408616, 0, 0, 1.391976, 100.73851, -237.912674)"/>
  <circle style="" cx="356.702" cy="189.683" r="7.517"/>
  <circle style="paint-order: stroke; stroke: rgb(46, 110, 25); stroke-width: 0px; fill: rgb(46, 110, 25);" cx="181.667" cy="307.272" r="36.584" transform="matrix(2.330833, 0, 0, 2.303297, -279.698944, -512.218384)"/>
  <circle style="paint-order: stroke; stroke-width: 17.5772px; fill: rgb(227, 46, 46); stroke: rgb(175, 176, 137);" cx="181.667" cy="307.272" r="36.584" transform="matrix(1.408616, 0, 0, 1.391976, -111.889893, -232.422104)"/>
  <circle style="" cx="144.074" cy="195.174" r="7.517"/>
</svg>